<?xml version="1.0" encoding="UTF-8"?><svg xmlns="http://www.w3.org/2000/svg" xmlns:xlink="http://www.w3.org/1999/xlink" fill-opacity="1" color-rendering="auto" color-interpolation="auto" text-rendering="auto" stroke="black" stroke-linecap="square" width="652" stroke-miterlimit="10" shape-rendering="auto" stroke-opacity="1" fill="black" stroke-dasharray="none" font-weight="normal" stroke-width="1" height="617" font-family="'Dialog'" font-style="normal" stroke-linejoin="miter" font-size="12px" stroke-dashoffset="0" image-rendering="auto">
  <!--Generated by ySVG 2.6-->
  <defs id="genericDefs"/>
  <g>
    <defs id="defs1">
      <clipPath clipPathUnits="userSpaceOnUse" id="clipPath1">
        <path d="M0 0 L652 0 L652 617 L0 617 L0 0 Z"/>
      </clipPath>
      <clipPath clipPathUnits="userSpaceOnUse" id="clipPath2">
        <path d="M381 7 L1033 7 L1033 624 L381 624 L381 7 Z"/>
      </clipPath>
    </defs>
    <g fill="white" text-rendering="geometricPrecision" shape-rendering="geometricPrecision" transform="translate(-381,-7)" stroke="white">
      <rect x="381" width="652" height="617" y="7" clip-path="url(#clipPath2)" stroke="none"/>
    </g>
    <g fill="rgb(245,245,245)" text-rendering="geometricPrecision" shape-rendering="geometricPrecision" transform="matrix(1,0,0,1,-381,-7)" stroke="rgb(245,245,245)">
      <rect x="396.95" y="22.3437" clip-path="url(#clipPath2)" width="621" rx="4" ry="4" height="585.6563" stroke="none"/>
      <rect x="396.95" y="22.3437" clip-path="url(#clipPath2)" fill="rgb(235,235,235)" width="621" height="17.9688" stroke="none"/>
    </g>
    <g text-rendering="geometricPrecision" stroke-miterlimit="1.45" shape-rendering="geometricPrecision" font-family="sans-serif" transform="matrix(1,0,0,1,-381,-7)" stroke-linecap="butt">
      <text x="883.6277" xml:space="preserve" y="35.4824" clip-path="url(#clipPath2)" stroke="none">ESnet shell (top-level)</text>
      <rect x="396.95" y="22.3437" clip-path="url(#clipPath2)" fill="none" width="621" stroke-dasharray="6,2" rx="4" ry="4" height="585.6563"/>
    </g>
    <g fill="rgb(153,204,255)" text-rendering="geometricPrecision" shape-rendering="geometricPrecision" transform="matrix(1,0,0,1,-381,-7)" stroke="rgb(153,204,255)">
      <rect x="434.95" width="93" height="194" y="254" clip-path="url(#clipPath2)" stroke="none"/>
    </g>
    <g text-rendering="geometricPrecision" stroke-miterlimit="1.45" shape-rendering="geometricPrecision" transform="matrix(1,0,0,1,-381,-7)" stroke-linecap="butt">
      <rect fill="none" x="434.95" width="93" height="194" y="254" clip-path="url(#clipPath2)"/>
      <text x="461.3377" xml:space="preserve" y="348.1699" clip-path="url(#clipPath2)" font-family="sans-serif" stroke="none">Packet</text>
      <text x="455.0594" xml:space="preserve" y="362.1387" clip-path="url(#clipPath2)" font-family="sans-serif" stroke="none">Enqueue</text>
    </g>
    <g fill="rgb(225,225,225)" text-rendering="geometricPrecision" shape-rendering="geometricPrecision" transform="matrix(1,0,0,1,-381,-7)" stroke="rgb(225,225,225)">
      <rect x="422.4177" y="55.3125" clip-path="url(#clipPath2)" width="123" rx="4" ry="4" height="537.6875" stroke="none"/>
      <rect x="422.4177" y="55.3125" clip-path="url(#clipPath2)" fill="rgb(235,235,235)" width="123" height="17.9688" stroke="none"/>
    </g>
    <g text-rendering="geometricPrecision" stroke-miterlimit="1.45" shape-rendering="geometricPrecision" font-family="sans-serif" transform="matrix(1,0,0,1,-381,-7)" stroke-linecap="butt">
      <text x="525.9978" xml:space="preserve" y="68.4512" clip-path="url(#clipPath2)" stroke="none">hw</text>
      <rect x="422.4177" y="55.3125" clip-path="url(#clipPath2)" fill="none" width="123" stroke-dasharray="6,2" rx="4" ry="4" height="537.6875"/>
    </g>
    <g fill="rgb(153,204,255)" text-rendering="geometricPrecision" shape-rendering="geometricPrecision" transform="matrix(1,0,0,1,-381,-7)" stroke="rgb(153,204,255)">
      <rect x="437.4177" width="93" height="78" y="88.2813" clip-path="url(#clipPath2)" stroke="none"/>
    </g>
    <g text-rendering="geometricPrecision" stroke-miterlimit="1.45" shape-rendering="geometricPrecision" transform="matrix(1,0,0,1,-381,-7)" stroke-linecap="butt">
      <rect fill="none" x="437.4177" width="93" height="78" y="88.2813" clip-path="url(#clipPath2)"/>
      <text x="471.7039" xml:space="preserve" y="117.4668" clip-path="url(#clipPath2)" font-family="sans-serif" stroke="none">Pins</text>
      <text x="446.0369" xml:space="preserve" y="131.4355" clip-path="url(#clipPath2)" font-family="sans-serif" stroke="none">(+ clock and</text>
      <text x="452.0574" xml:space="preserve" y="145.4043" clip-path="url(#clipPath2)" font-family="sans-serif" stroke="none">IO buffers)</text>
    </g>
    <g fill="rgb(153,204,255)" text-rendering="geometricPrecision" shape-rendering="geometricPrecision" transform="matrix(1,0,0,1,-381,-7)" stroke="rgb(153,204,255)">
      <rect x="437.4177" width="93" height="78" y="203.6406" clip-path="url(#clipPath2)" stroke="none"/>
    </g>
    <g text-rendering="geometricPrecision" stroke-miterlimit="1.45" shape-rendering="geometricPrecision" transform="matrix(1,0,0,1,-381,-7)" stroke-linecap="butt">
      <rect fill="none" x="437.4177" width="93" height="78" y="203.6406" clip-path="url(#clipPath2)"/>
      <text x="461.5437" xml:space="preserve" y="239.8105" clip-path="url(#clipPath2)" font-family="sans-serif" stroke="none">System</text>
      <text x="455.1628" xml:space="preserve" y="253.7793" clip-path="url(#clipPath2)" font-family="sans-serif" stroke="none">controller</text>
    </g>
    <g fill="rgb(153,204,255)" text-rendering="geometricPrecision" shape-rendering="geometricPrecision" transform="matrix(1,0,0,1,-381,-7)" stroke="rgb(153,204,255)">
      <rect x="437.4177" width="93" height="78" y="319" clip-path="url(#clipPath2)" stroke="none"/>
    </g>
    <g text-rendering="geometricPrecision" stroke-miterlimit="1.45" shape-rendering="geometricPrecision" transform="matrix(1,0,0,1,-381,-7)" stroke-linecap="butt">
      <rect fill="none" x="437.4177" width="93" height="78" y="319" clip-path="url(#clipPath2)"/>
      <text x="455.3386" xml:space="preserve" y="348.1855" clip-path="url(#clipPath2)" font-family="sans-serif" stroke="none">GPIO/I2C/</text>
      <text x="462.616" xml:space="preserve" y="362.1543" clip-path="url(#clipPath2)" font-family="sans-serif" stroke="none">SMBUS</text>
      <text x="452.0369" xml:space="preserve" y="376.123" clip-path="url(#clipPath2)" font-family="sans-serif" stroke="none">controllers</text>
    </g>
    <g fill="rgb(153,204,255)" text-rendering="geometricPrecision" shape-rendering="geometricPrecision" transform="matrix(1,0,0,1,-381,-7)" stroke="rgb(153,204,255)">
      <rect x="437.4177" width="93" height="78" y="434.3594" clip-path="url(#clipPath2)" stroke="none"/>
    </g>
    <g text-rendering="geometricPrecision" stroke-miterlimit="1.45" shape-rendering="geometricPrecision" transform="matrix(1,0,0,1,-381,-7)" stroke-linecap="butt">
      <rect fill="none" x="437.4177" width="93" height="78" y="434.3594" clip-path="url(#clipPath2)"/>
      <text x="468.1941" xml:space="preserve" y="470.5293" clip-path="url(#clipPath2)" font-family="sans-serif" stroke="none">Flash</text>
      <text x="455.1628" xml:space="preserve" y="484.498" clip-path="url(#clipPath2)" font-family="sans-serif" stroke="none">controller</text>
    </g>
    <g fill="rgb(153,204,255)" text-rendering="geometricPrecision" shape-rendering="geometricPrecision" transform="matrix(1,0,0,1,-381,-7)" stroke="rgb(153,204,255)">
      <rect x="437.4177" width="93" height="49" y="529" clip-path="url(#clipPath2)" stroke="none"/>
    </g>
    <g text-rendering="geometricPrecision" stroke-miterlimit="1.45" shape-rendering="geometricPrecision" transform="matrix(1,0,0,1,-381,-7)" stroke-linecap="butt">
      <rect fill="none" x="437.4177" width="93" height="49" y="529" clip-path="url(#clipPath2)"/>
      <text x="472.6677" xml:space="preserve" y="557.6543" clip-path="url(#clipPath2)" font-family="sans-serif" stroke="none">etc.</text>
    </g>
    <g fill="rgb(225,225,225)" text-rendering="geometricPrecision" shape-rendering="geometricPrecision" transform="matrix(1,0,0,1,-381,-7)" stroke="rgb(225,225,225)">
      <rect x="651.1839" y="55.3125" clip-path="url(#clipPath2)" width="123" rx="4" ry="4" height="537.6875" stroke="none"/>
      <rect x="651.1839" y="55.3125" clip-path="url(#clipPath2)" fill="rgb(235,235,235)" width="123" height="17.9688" stroke="none"/>
    </g>
    <g text-rendering="geometricPrecision" stroke-miterlimit="1.45" shape-rendering="geometricPrecision" font-family="sans-serif" transform="matrix(1,0,0,1,-381,-7)" stroke-linecap="butt">
      <text x="744.2756" xml:space="preserve" y="68.4512" clip-path="url(#clipPath2)" stroke="none">shell</text>
      <rect x="651.1839" y="55.3125" clip-path="url(#clipPath2)" fill="none" width="123" stroke-dasharray="6,2" rx="4" ry="4" height="537.6875"/>
    </g>
    <g fill="rgb(153,204,255)" text-rendering="geometricPrecision" shape-rendering="geometricPrecision" transform="matrix(1,0,0,1,-381,-7)" stroke="rgb(153,204,255)">
      <rect x="666.1839" width="93" height="78" y="88.2813" clip-path="url(#clipPath2)" stroke="none"/>
    </g>
    <g text-rendering="geometricPrecision" stroke-miterlimit="1.45" shape-rendering="geometricPrecision" transform="matrix(1,0,0,1,-381,-7)" stroke-linecap="butt">
      <rect fill="none" x="666.1839" width="93" height="78" y="88.2813" clip-path="url(#clipPath2)"/>
      <text x="696.0872" xml:space="preserve" y="131.4355" clip-path="url(#clipPath2)" font-family="sans-serif" stroke="none">MACs</text>
    </g>
    <g fill="rgb(153,204,255)" text-rendering="geometricPrecision" shape-rendering="geometricPrecision" transform="matrix(1,0,0,1,-381,-7)" stroke="rgb(153,204,255)">
      <rect x="666.1839" width="93" height="78" y="203.6406" clip-path="url(#clipPath2)" stroke="none"/>
    </g>
    <g text-rendering="geometricPrecision" stroke-miterlimit="1.45" shape-rendering="geometricPrecision" transform="matrix(1,0,0,1,-381,-7)" stroke-linecap="butt">
      <rect fill="none" x="666.1839" width="93" height="78" y="203.6406" clip-path="url(#clipPath2)"/>
      <text x="699.4153" xml:space="preserve" y="239.8105" clip-path="url(#clipPath2)" font-family="sans-serif" stroke="none">PCIe</text>
      <text x="686.0793" xml:space="preserve" y="253.7793" clip-path="url(#clipPath2)" font-family="sans-serif" stroke="none">endpoint</text>
    </g>
    <g fill="rgb(153,204,255)" text-rendering="geometricPrecision" shape-rendering="geometricPrecision" transform="matrix(1,0,0,1,-381,-7)" stroke="rgb(153,204,255)">
      <rect x="666.1839" width="93" height="78" y="319" clip-path="url(#clipPath2)" stroke="none"/>
    </g>
    <g text-rendering="geometricPrecision" stroke-miterlimit="1.45" shape-rendering="geometricPrecision" transform="matrix(1,0,0,1,-381,-7)" stroke-linecap="butt">
      <rect fill="none" x="666.1839" width="93" height="78" y="319" clip-path="url(#clipPath2)"/>
      <text x="694.0598" xml:space="preserve" y="362.1543" clip-path="url(#clipPath2)" font-family="sans-serif" stroke="none">QDMA</text>
    </g>
    <g fill="rgb(153,204,255)" text-rendering="geometricPrecision" shape-rendering="geometricPrecision" transform="matrix(1,0,0,1,-381,-7)" stroke="rgb(153,204,255)">
      <rect x="666.1839" width="93" height="78" y="434.3594" clip-path="url(#clipPath2)" stroke="none"/>
    </g>
    <g text-rendering="geometricPrecision" stroke-miterlimit="1.45" shape-rendering="geometricPrecision" transform="matrix(1,0,0,1,-381,-7)" stroke-linecap="butt">
      <rect fill="none" x="666.1839" width="93" height="78" y="434.3594" clip-path="url(#clipPath2)"/>
      <text x="685.1067" xml:space="preserve" y="463.5449" clip-path="url(#clipPath2)" font-family="sans-serif" stroke="none">Top-level</text>
      <text x="689.4133" xml:space="preserve" y="477.5137" clip-path="url(#clipPath2)" font-family="sans-serif" stroke="none">register</text>
      <text x="688.2473" xml:space="preserve" y="491.4824" clip-path="url(#clipPath2)" font-family="sans-serif" stroke="none">decoder</text>
    </g>
    <g fill="rgb(225,225,225)" text-rendering="geometricPrecision" shape-rendering="geometricPrecision" transform="matrix(1,0,0,1,-381,-7)" stroke="rgb(225,225,225)">
      <rect x="879.95" y="55.3125" clip-path="url(#clipPath2)" width="123" rx="4" ry="4" height="537.6875" stroke="none"/>
      <rect x="879.95" y="55.3125" clip-path="url(#clipPath2)" fill="rgb(235,235,235)" width="123" height="17.9688" stroke="none"/>
    </g>
    <g text-rendering="geometricPrecision" stroke-miterlimit="1.45" shape-rendering="geometricPrecision" font-family="sans-serif" transform="matrix(1,0,0,1,-381,-7)" stroke-linecap="butt">
      <text x="974.6942" xml:space="preserve" y="68.4512" clip-path="url(#clipPath2)" stroke="none">core</text>
      <rect x="879.95" y="55.3125" clip-path="url(#clipPath2)" fill="none" width="123" stroke-dasharray="6,2" rx="4" ry="4" height="537.6875"/>
    </g>
    <g fill="rgb(153,204,255)" text-rendering="geometricPrecision" shape-rendering="geometricPrecision" transform="matrix(1,0,0,1,-381,-7)" stroke="rgb(153,204,255)">
      <rect x="894.95" width="93" height="471.6" y="88.2813" clip-path="url(#clipPath2)" stroke="none"/>
    </g>
    <g text-rendering="geometricPrecision" stroke-miterlimit="1.45" shape-rendering="geometricPrecision" transform="matrix(1,0,0,1,-381,-7)" stroke-linecap="butt">
      <rect fill="none" x="894.95" width="93" height="471.6" y="88.2813" clip-path="url(#clipPath2)"/>
      <text x="907.9256" xml:space="preserve" y="321.2512" clip-path="url(#clipPath2)" font-family="sans-serif" stroke="none">Application</text>
      <text x="927.3377" xml:space="preserve" y="335.2199" clip-path="url(#clipPath2)" font-family="sans-serif" stroke="none">logic</text>
      <ellipse clip-path="url(#clipPath2)" fill="none" rx="15" stroke-dasharray="6,2" cx="590.4177" ry="71.5" cy="325.5"/>
      <ellipse clip-path="url(#clipPath2)" fill="none" rx="15" stroke-dasharray="6,2" cx="830" ry="71.5" cy="324.1563"/>
      <path fill="none" d="M550.3677 324.1562 L631 324.1562" clip-path="url(#clipPath2)"/>
      <path d="M639 324.1562 L627 319.1562 L630 324.1562 L627 329.1562 Z" clip-path="url(#clipPath2)" stroke="none"/>
      <text x="572.2393" xml:space="preserve" y="238.3105" clip-path="url(#clipPath2)" font-family="sans-serif" stroke="none">hw_intf</text>
      <path fill="none" d="M786.3677 324.1562 L867 324.1562" clip-path="url(#clipPath2)"/>
      <path d="M875 324.1562 L863 319.1562 L866 324.1562 L863 329.1562 Z" clip-path="url(#clipPath2)" stroke="none"/>
      <text x="803.2629" xml:space="preserve" y="238.3105" clip-path="url(#clipPath2)" font-family="sans-serif" stroke="none">shell_intf</text>
    </g>
  </g>
</svg>
