<?xml version="1.0" encoding="UTF-8"?><svg xmlns="http://www.w3.org/2000/svg" xmlns:xlink="http://www.w3.org/1999/xlink" fill-opacity="1" color-rendering="auto" color-interpolation="auto" text-rendering="auto" stroke="black" stroke-linecap="square" width="646" stroke-miterlimit="10" shape-rendering="auto" stroke-opacity="1" fill="black" stroke-dasharray="none" font-weight="normal" stroke-width="1" height="395" font-family="'Dialog'" font-style="normal" stroke-linejoin="miter" font-size="12px" stroke-dashoffset="0" image-rendering="auto">
  <!--Generated by ySVG 2.6-->
  <defs id="genericDefs"/>
  <g>
    <defs id="defs1">
      <clipPath clipPathUnits="userSpaceOnUse" id="clipPath1">
        <path d="M0 0 L646 0 L646 395 L0 395 L0 0 Z"/>
      </clipPath>
      <clipPath clipPathUnits="userSpaceOnUse" id="clipPath2">
        <path d="M961 282 L1607 282 L1607 677 L961 677 L961 282 Z"/>
      </clipPath>
    </defs>
    <g fill="white" text-rendering="geometricPrecision" shape-rendering="geometricPrecision" transform="translate(-961,-282)" stroke="white">
      <rect x="961" width="646" height="395" y="282" clip-path="url(#clipPath2)" stroke="none"/>
    </g>
    <g fill="rgb(221,221,221)" text-rendering="geometricPrecision" shape-rendering="geometricPrecision" transform="matrix(1,0,0,1,-961,-282)" stroke="rgb(221,221,221)">
      <rect x="1030.0264" width="517.8" height="273.0667" y="297.3445" clip-path="url(#clipPath2)" stroke="none"/>
    </g>
    <g text-rendering="geometricPrecision" stroke-miterlimit="1.45" shape-rendering="geometricPrecision" transform="matrix(1,0,0,1,-961,-282)" stroke-linecap="butt">
      <rect fill="none" x="1030.0264" width="517.8" height="273.0667" y="297.3445" clip-path="url(#clipPath2)"/>
      <text x="1495.1448" y="315.4089" clip-path="url(#clipPath2)" font-family="sans-serif" stroke="none" font-weight="bold" xml:space="preserve">p4_proc</text>
      <text x="981.4435" xml:space="preserve" y="382.9851" clip-path="url(#clipPath2)" font-family="sans-serif" stroke="none">P0</text>
    </g>
    <g fill="rgb(153,204,255)" text-rendering="geometricPrecision" shape-rendering="geometricPrecision" transform="matrix(1,0,0,1,-961,-282)" stroke="rgb(153,204,255)">
      <rect x="1257.81" width="75.35" height="34" y="362.5" clip-path="url(#clipPath2)" stroke="none"/>
    </g>
    <g text-rendering="geometricPrecision" stroke-miterlimit="1.45" shape-rendering="geometricPrecision" transform="matrix(1,0,0,1,-961,-282)" stroke-linecap="butt">
      <rect fill="none" x="1257.81" width="75.35" height="34" y="362.5" clip-path="url(#clipPath2)"/>
      <text x="1268.8014" xml:space="preserve" y="384.2139" clip-path="url(#clipPath2)" font-family="sans-serif" stroke="none">axi4s_join</text>
    </g>
    <g fill="rgb(153,204,255)" text-rendering="geometricPrecision" shape-rendering="geometricPrecision" transform="matrix(1,0,0,1,-961,-282)" stroke="rgb(153,204,255)">
      <rect x="1120.2519" width="53.2931" height="28.8" y="461.06" clip-path="url(#clipPath2)" stroke="none"/>
    </g>
    <g text-rendering="geometricPrecision" stroke-miterlimit="1.45" shape-rendering="geometricPrecision" transform="matrix(1,0,0,1,-961,-282)" stroke-linecap="butt">
      <rect fill="none" x="1120.2519" width="53.2931" height="28.8" y="461.06" clip-path="url(#clipPath2)"/>
      <text x="1135.5635" xml:space="preserve" y="480.1739" clip-path="url(#clipPath2)" font-family="sans-serif" stroke="none">mux</text>
    </g>
    <g fill="rgb(153,204,255)" text-rendering="geometricPrecision" shape-rendering="geometricPrecision" transform="matrix(1,0,0,1,-961,-282)" stroke="rgb(153,204,255)">
      <rect x="1211.9818" width="53.2931" height="28.8" y="461.06" clip-path="url(#clipPath2)" stroke="none"/>
    </g>
    <g text-rendering="geometricPrecision" stroke-miterlimit="1.45" shape-rendering="geometricPrecision" transform="matrix(1,0,0,1,-961,-282)" stroke-linecap="butt">
      <rect fill="none" x="1211.9818" width="53.2931" height="28.8" y="461.06" clip-path="url(#clipPath2)"/>
      <text x="1220.6195" xml:space="preserve" y="480.1739" clip-path="url(#clipPath2)" font-family="sans-serif" stroke="none">demux</text>
    </g>
    <g fill="rgb(153,204,255)" text-rendering="geometricPrecision" shape-rendering="geometricPrecision" transform="matrix(1,0,0,1,-961,-282)" stroke="rgb(153,204,255)">
      <rect x="1120.2519" width="145.023" height="28.8" y="507.9256" clip-path="url(#clipPath2)" stroke="none"/>
    </g>
    <g text-rendering="geometricPrecision" stroke-miterlimit="1.45" shape-rendering="geometricPrecision" transform="matrix(1,0,0,1,-961,-282)" stroke-linecap="butt">
      <rect fill="none" x="1120.2519" width="145.023" height="28.8" y="507.9256" clip-path="url(#clipPath2)"/>
      <text x="1173.7527" xml:space="preserve" y="527.0394" clip-path="url(#clipPath2)" font-family="sans-serif" stroke="none">bypass</text>
    </g>
    <g fill="rgb(153,204,255)" text-rendering="geometricPrecision" shape-rendering="geometricPrecision" transform="matrix(1,0,0,1,-961,-282)" stroke="rgb(153,204,255)">
      <rect x="1356.756" width="75.35" height="34" y="362.5" clip-path="url(#clipPath2)" stroke="none"/>
    </g>
    <g text-rendering="geometricPrecision" stroke-miterlimit="1.45" shape-rendering="geometricPrecision" transform="matrix(1,0,0,1,-961,-282)" stroke-linecap="butt">
      <rect fill="none" x="1356.756" width="75.35" height="34" y="362.5" clip-path="url(#clipPath2)"/>
      <text x="1365.0785" xml:space="preserve" y="384.2139" clip-path="url(#clipPath2)" font-family="sans-serif" stroke="none">axi4s_drop</text>
    </g>
    <g fill="rgb(153,204,255)" text-rendering="geometricPrecision" shape-rendering="geometricPrecision" transform="matrix(1,0,0,1,-961,-282)" stroke="rgb(153,204,255)">
      <rect x="1455.702" width="75.35" height="34" y="362.5" clip-path="url(#clipPath2)" stroke="none"/>
    </g>
    <g text-rendering="geometricPrecision" stroke-miterlimit="1.45" shape-rendering="geometricPrecision" transform="matrix(1,0,0,1,-961,-282)" stroke-linecap="butt">
      <rect fill="none" x="1455.702" width="75.35" height="34" y="362.5" clip-path="url(#clipPath2)"/>
      <text x="1462.6943" xml:space="preserve" y="384.2139" clip-path="url(#clipPath2)" font-family="sans-serif" stroke="none">axi4s_trunc</text>
    </g>
    <g fill="rgb(153,204,255)" text-rendering="geometricPrecision" shape-rendering="geometricPrecision" transform="matrix(1,0,0,1,-961,-282)" stroke="rgb(153,204,255)">
      <rect x="1050.66" width="75.35" height="34" y="362.5" clip-path="url(#clipPath2)" stroke="none"/>
    </g>
    <g text-rendering="geometricPrecision" stroke-miterlimit="1.45" shape-rendering="geometricPrecision" transform="matrix(1,0,0,1,-961,-282)" stroke-linecap="butt">
      <rect fill="none" x="1050.66" width="75.35" height="34" y="362.5" clip-path="url(#clipPath2)"/>
      <text x="1060.3213" xml:space="preserve" y="384.2139" clip-path="url(#clipPath2)" font-family="sans-serif" stroke="none">axi4s_split</text>
    </g>
    <g fill="rgb(153,204,255)" text-rendering="geometricPrecision" shape-rendering="geometricPrecision" transform="matrix(1,0,0,1,-961,-282)" stroke="rgb(153,204,255)">
      <rect x="1167.1389" width="6.4061" height="34" y="362.5" clip-path="url(#clipPath2)" stroke="none"/>
    </g>
    <g text-rendering="geometricPrecision" stroke-miterlimit="1.45" shape-rendering="geometricPrecision" transform="matrix(1,0,0,1,-961,-282)" stroke-linecap="butt">
      <rect fill="none" x="1167.1389" width="6.4061" height="34" y="362.5" clip-path="url(#clipPath2)"/>
    </g>
    <g fill="rgb(153,204,255)" text-rendering="geometricPrecision" shape-rendering="geometricPrecision" transform="matrix(1,0,0,1,-961,-282)" stroke="rgb(153,204,255)">
      <rect x="1173.545" width="6.4061" height="34" y="362.5" clip-path="url(#clipPath2)" stroke="none"/>
    </g>
    <g text-rendering="geometricPrecision" stroke-miterlimit="1.45" shape-rendering="geometricPrecision" transform="matrix(1,0,0,1,-961,-282)" stroke-linecap="butt">
      <rect fill="none" x="1173.545" width="6.4061" height="34" y="362.5" clip-path="url(#clipPath2)"/>
    </g>
    <g fill="rgb(153,204,255)" text-rendering="geometricPrecision" shape-rendering="geometricPrecision" transform="matrix(1,0,0,1,-961,-282)" stroke="rgb(153,204,255)">
      <rect x="1179.9511" width="6.4061" height="34" y="362.5" clip-path="url(#clipPath2)" stroke="none"/>
    </g>
    <g text-rendering="geometricPrecision" stroke-miterlimit="1.45" shape-rendering="geometricPrecision" transform="matrix(1,0,0,1,-961,-282)" stroke-linecap="butt">
      <rect fill="none" x="1179.9511" width="6.4061" height="34" y="362.5" clip-path="url(#clipPath2)"/>
    </g>
    <g fill="rgb(153,204,255)" text-rendering="geometricPrecision" shape-rendering="geometricPrecision" transform="matrix(1,0,0,1,-961,-282)" stroke="rgb(153,204,255)">
      <rect x="1186.3573" width="6.4061" height="34" y="362.5" clip-path="url(#clipPath2)" stroke="none"/>
    </g>
    <g text-rendering="geometricPrecision" stroke-miterlimit="1.45" shape-rendering="geometricPrecision" transform="matrix(1,0,0,1,-961,-282)" stroke-linecap="butt">
      <rect fill="none" x="1186.3573" width="6.4061" height="34" y="362.5" clip-path="url(#clipPath2)"/>
    </g>
    <g fill="rgb(153,204,255)" text-rendering="geometricPrecision" shape-rendering="geometricPrecision" transform="matrix(1,0,0,1,-961,-282)" stroke="rgb(153,204,255)">
      <rect x="1192.7634" width="6.4061" height="34" y="362.5" clip-path="url(#clipPath2)" stroke="none"/>
    </g>
    <g text-rendering="geometricPrecision" stroke-miterlimit="1.45" shape-rendering="geometricPrecision" transform="matrix(1,0,0,1,-961,-282)" stroke-linecap="butt">
      <rect fill="none" x="1192.7634" width="6.4061" height="34" y="362.5" clip-path="url(#clipPath2)"/>
    </g>
    <g fill="rgb(153,204,255)" text-rendering="geometricPrecision" shape-rendering="geometricPrecision" transform="matrix(1,0,0,1,-961,-282)" stroke="rgb(153,204,255)">
      <rect x="1199.1695" width="6.4061" height="34" y="362.5" clip-path="url(#clipPath2)" stroke="none"/>
    </g>
    <g text-rendering="geometricPrecision" stroke-miterlimit="1.45" shape-rendering="geometricPrecision" transform="matrix(1,0,0,1,-961,-282)" stroke-linecap="butt">
      <rect fill="none" x="1199.1695" width="6.4061" height="34" y="362.5" clip-path="url(#clipPath2)"/>
    </g>
    <g fill="rgb(153,204,255)" text-rendering="geometricPrecision" shape-rendering="geometricPrecision" transform="matrix(1,0,0,1,-961,-282)" stroke="rgb(153,204,255)">
      <rect x="1205.5756" width="6.4061" height="34" y="362.5" clip-path="url(#clipPath2)" stroke="none"/>
    </g>
    <g text-rendering="geometricPrecision" stroke-miterlimit="1.45" shape-rendering="geometricPrecision" transform="matrix(1,0,0,1,-961,-282)" stroke-linecap="butt">
      <rect fill="none" x="1205.5756" width="6.4061" height="34" y="362.5" clip-path="url(#clipPath2)"/>
    </g>
    <g fill="rgb(153,204,255)" text-rendering="geometricPrecision" shape-rendering="geometricPrecision" transform="matrix(1,0,0,1,-961,-282)" stroke="rgb(153,204,255)">
      <rect x="1211.9818" width="6.4061" height="34" y="362.5" clip-path="url(#clipPath2)" stroke="none"/>
    </g>
    <g text-rendering="geometricPrecision" stroke-miterlimit="1.45" shape-rendering="geometricPrecision" transform="matrix(1,0,0,1,-961,-282)" stroke-linecap="butt">
      <rect fill="none" x="1211.9818" width="6.4061" height="34" y="362.5" clip-path="url(#clipPath2)"/>
    </g>
    <g fill="rgb(153,204,255)" text-rendering="geometricPrecision" shape-rendering="geometricPrecision" transform="matrix(1,0,0,1,-961,-282)" stroke="rgb(153,204,255)">
      <rect x="1257.81" width="75.35" height="34" y="408.9944" clip-path="url(#clipPath2)" stroke="none"/>
    </g>
    <g text-rendering="geometricPrecision" stroke-miterlimit="1.45" shape-rendering="geometricPrecision" transform="matrix(1,0,0,1,-961,-282)" stroke-linecap="butt">
      <rect fill="none" x="1257.81" width="75.35" height="34" y="408.9944" clip-path="url(#clipPath2)"/>
      <text x="1268.8014" xml:space="preserve" y="430.7083" clip-path="url(#clipPath2)" font-family="sans-serif" stroke="none">axi4s_join</text>
    </g>
    <g fill="rgb(153,204,255)" text-rendering="geometricPrecision" shape-rendering="geometricPrecision" transform="matrix(1,0,0,1,-961,-282)" stroke="rgb(153,204,255)">
      <rect x="1356.756" width="75.35" height="34" y="408.9944" clip-path="url(#clipPath2)" stroke="none"/>
    </g>
    <g text-rendering="geometricPrecision" stroke-miterlimit="1.45" shape-rendering="geometricPrecision" transform="matrix(1,0,0,1,-961,-282)" stroke-linecap="butt">
      <rect fill="none" x="1356.756" width="75.35" height="34" y="408.9944" clip-path="url(#clipPath2)"/>
      <text x="1365.0785" xml:space="preserve" y="430.7083" clip-path="url(#clipPath2)" font-family="sans-serif" stroke="none">axi4s_drop</text>
    </g>
    <g fill="rgb(153,204,255)" text-rendering="geometricPrecision" shape-rendering="geometricPrecision" transform="matrix(1,0,0,1,-961,-282)" stroke="rgb(153,204,255)">
      <rect x="1455.702" width="75.35" height="34" y="408.9944" clip-path="url(#clipPath2)" stroke="none"/>
    </g>
    <g text-rendering="geometricPrecision" stroke-miterlimit="1.45" shape-rendering="geometricPrecision" transform="matrix(1,0,0,1,-961,-282)" stroke-linecap="butt">
      <rect fill="none" x="1455.702" width="75.35" height="34" y="408.9944" clip-path="url(#clipPath2)"/>
      <text x="1462.6943" xml:space="preserve" y="430.7083" clip-path="url(#clipPath2)" font-family="sans-serif" stroke="none">axi4s_trunc</text>
    </g>
    <g fill="rgb(153,204,255)" text-rendering="geometricPrecision" shape-rendering="geometricPrecision" transform="matrix(1,0,0,1,-961,-282)" stroke="rgb(153,204,255)">
      <rect x="1050.66" width="75.35" height="34" y="408.9944" clip-path="url(#clipPath2)" stroke="none"/>
    </g>
    <g text-rendering="geometricPrecision" stroke-miterlimit="1.45" shape-rendering="geometricPrecision" transform="matrix(1,0,0,1,-961,-282)" stroke-linecap="butt">
      <rect fill="none" x="1050.66" width="75.35" height="34" y="408.9944" clip-path="url(#clipPath2)"/>
      <text x="1060.3213" xml:space="preserve" y="430.7083" clip-path="url(#clipPath2)" font-family="sans-serif" stroke="none">axi4s_split</text>
    </g>
    <g fill="rgb(153,204,255)" text-rendering="geometricPrecision" shape-rendering="geometricPrecision" transform="matrix(1,0,0,1,-961,-282)" stroke="rgb(153,204,255)">
      <rect x="1167.1389" width="6.4061" height="34" y="408.9944" clip-path="url(#clipPath2)" stroke="none"/>
    </g>
    <g text-rendering="geometricPrecision" stroke-miterlimit="1.45" shape-rendering="geometricPrecision" transform="matrix(1,0,0,1,-961,-282)" stroke-linecap="butt">
      <rect fill="none" x="1167.1389" width="6.4061" height="34" y="408.9944" clip-path="url(#clipPath2)"/>
    </g>
    <g fill="rgb(153,204,255)" text-rendering="geometricPrecision" shape-rendering="geometricPrecision" transform="matrix(1,0,0,1,-961,-282)" stroke="rgb(153,204,255)">
      <rect x="1173.545" width="6.4061" height="34" y="408.9944" clip-path="url(#clipPath2)" stroke="none"/>
    </g>
    <g text-rendering="geometricPrecision" stroke-miterlimit="1.45" shape-rendering="geometricPrecision" transform="matrix(1,0,0,1,-961,-282)" stroke-linecap="butt">
      <rect fill="none" x="1173.545" width="6.4061" height="34" y="408.9944" clip-path="url(#clipPath2)"/>
    </g>
    <g fill="rgb(153,204,255)" text-rendering="geometricPrecision" shape-rendering="geometricPrecision" transform="matrix(1,0,0,1,-961,-282)" stroke="rgb(153,204,255)">
      <rect x="1179.9511" width="6.4061" height="34" y="408.9944" clip-path="url(#clipPath2)" stroke="none"/>
    </g>
    <g text-rendering="geometricPrecision" stroke-miterlimit="1.45" shape-rendering="geometricPrecision" transform="matrix(1,0,0,1,-961,-282)" stroke-linecap="butt">
      <rect fill="none" x="1179.9511" width="6.4061" height="34" y="408.9944" clip-path="url(#clipPath2)"/>
    </g>
    <g fill="rgb(153,204,255)" text-rendering="geometricPrecision" shape-rendering="geometricPrecision" transform="matrix(1,0,0,1,-961,-282)" stroke="rgb(153,204,255)">
      <rect x="1186.3573" width="6.4061" height="34" y="408.9944" clip-path="url(#clipPath2)" stroke="none"/>
    </g>
    <g text-rendering="geometricPrecision" stroke-miterlimit="1.45" shape-rendering="geometricPrecision" transform="matrix(1,0,0,1,-961,-282)" stroke-linecap="butt">
      <rect fill="none" x="1186.3573" width="6.4061" height="34" y="408.9944" clip-path="url(#clipPath2)"/>
    </g>
    <g fill="rgb(153,204,255)" text-rendering="geometricPrecision" shape-rendering="geometricPrecision" transform="matrix(1,0,0,1,-961,-282)" stroke="rgb(153,204,255)">
      <rect x="1192.7634" width="6.4061" height="34" y="408.9944" clip-path="url(#clipPath2)" stroke="none"/>
    </g>
    <g text-rendering="geometricPrecision" stroke-miterlimit="1.45" shape-rendering="geometricPrecision" transform="matrix(1,0,0,1,-961,-282)" stroke-linecap="butt">
      <rect fill="none" x="1192.7634" width="6.4061" height="34" y="408.9944" clip-path="url(#clipPath2)"/>
    </g>
    <g fill="rgb(153,204,255)" text-rendering="geometricPrecision" shape-rendering="geometricPrecision" transform="matrix(1,0,0,1,-961,-282)" stroke="rgb(153,204,255)">
      <rect x="1199.1695" width="6.4061" height="34" y="408.9944" clip-path="url(#clipPath2)" stroke="none"/>
    </g>
    <g text-rendering="geometricPrecision" stroke-miterlimit="1.45" shape-rendering="geometricPrecision" transform="matrix(1,0,0,1,-961,-282)" stroke-linecap="butt">
      <rect fill="none" x="1199.1695" width="6.4061" height="34" y="408.9944" clip-path="url(#clipPath2)"/>
    </g>
    <g fill="rgb(153,204,255)" text-rendering="geometricPrecision" shape-rendering="geometricPrecision" transform="matrix(1,0,0,1,-961,-282)" stroke="rgb(153,204,255)">
      <rect x="1205.5756" width="6.4061" height="34" y="408.9944" clip-path="url(#clipPath2)" stroke="none"/>
    </g>
    <g text-rendering="geometricPrecision" stroke-miterlimit="1.45" shape-rendering="geometricPrecision" transform="matrix(1,0,0,1,-961,-282)" stroke-linecap="butt">
      <rect fill="none" x="1205.5756" width="6.4061" height="34" y="408.9944" clip-path="url(#clipPath2)"/>
    </g>
    <g fill="rgb(153,204,255)" text-rendering="geometricPrecision" shape-rendering="geometricPrecision" transform="matrix(1,0,0,1,-961,-282)" stroke="rgb(153,204,255)">
      <rect x="1211.9818" width="6.4061" height="34" y="408.9944" clip-path="url(#clipPath2)" stroke="none"/>
    </g>
    <g text-rendering="geometricPrecision" stroke-miterlimit="1.45" shape-rendering="geometricPrecision" transform="matrix(1,0,0,1,-961,-282)" stroke-linecap="butt">
      <rect fill="none" x="1211.9818" width="6.4061" height="34" y="408.9944" clip-path="url(#clipPath2)"/>
      <text x="981.4435" xml:space="preserve" y="429.4795" clip-path="url(#clipPath2)" font-family="sans-serif" stroke="none">P1</text>
      <text x="1571.9011" xml:space="preserve" y="384.2139" clip-path="url(#clipPath2)" font-family="sans-serif" stroke="none">P0</text>
      <text x="1571.9011" xml:space="preserve" y="430.7083" clip-path="url(#clipPath2)" font-family="sans-serif" stroke="none">P1</text>
    </g>
    <g fill="rgb(153,204,255)" text-rendering="geometricPrecision" shape-rendering="geometricPrecision" transform="matrix(1,0,0,1,-961,-282)" stroke="rgb(153,204,255)">
      <rect x="1120.2519" width="145.023" height="73.6" y="587.6111" clip-path="url(#clipPath2)" stroke="none"/>
    </g>
    <g text-rendering="geometricPrecision" stroke-miterlimit="1.45" shape-rendering="geometricPrecision" transform="matrix(1,0,0,1,-961,-282)" stroke-linecap="butt">
      <rect fill="none" x="1120.2519" width="145.023" height="73.6" y="587.6111" clip-path="url(#clipPath2)"/>
      <text x="1167.4158" xml:space="preserve" y="629.125" clip-path="url(#clipPath2)" font-family="sans-serif" stroke="none">vitisnetp4</text>
      <text x="1168.8826" xml:space="preserve" y="351.4427" clip-path="url(#clipPath2)" font-family="sans-serif" stroke="none">pkt pyld</text>
      <text x="1174.4207" xml:space="preserve" y="559.3538" clip-path="url(#clipPath2)" font-family="sans-serif" stroke="none">pkt hdr</text>
      <path fill="none" d="M1228.0164 461.0482 L1228.0164 382.3326 L1249.1154 382.3326" clip-path="url(#clipPath2)"/>
      <path d="M1257.1154 382.3326 L1245.1154 377.3326 L1248.1154 382.3326 L1245.1154 387.3326 Z" clip-path="url(#clipPath2)" stroke="none"/>
      <path fill="none" d="M1146.8984 489.86 L1146.8984 499.9037" clip-path="url(#clipPath2)"/>
      <path d="M1146.8984 507.9037 L1151.8984 495.9037 L1146.8984 498.9037 L1141.8984 495.9037 Z" clip-path="url(#clipPath2)" stroke="none"/>
      <path fill="none" d="M1238.6283 507.8873 L1238.6283 497.86" clip-path="url(#clipPath2)"/>
      <path d="M1238.6283 489.86 L1233.6283 501.86 L1238.6283 498.86 L1243.6283 501.86 Z" clip-path="url(#clipPath2)" stroke="none"/>
      <path fill="none" d="M1333.16 379.5 L1348.71 379.5" clip-path="url(#clipPath2)"/>
      <path d="M1356.71 379.5 L1344.71 374.5 L1347.71 379.5 L1344.71 384.5 Z" clip-path="url(#clipPath2)" stroke="none"/>
      <path fill="none" d="M1432.1521 379.5 L1447.656 379.5" clip-path="url(#clipPath2)"/>
      <path d="M1455.656 379.5 L1443.656 374.5 L1446.656 379.5 L1443.656 384.5 Z" clip-path="url(#clipPath2)" stroke="none"/>
      <path fill="none" d="M1005.1279 379.5 L1042.6155 379.5" clip-path="url(#clipPath2)"/>
      <path d="M1050.6155 379.5 L1038.6155 374.5 L1041.6155 379.5 L1038.6155 384.5 Z" clip-path="url(#clipPath2)" stroke="none"/>
      <path fill="none" d="M1126.0171 385.0962 L1152.5919 385.0962 L1152.2527 453.0333" clip-path="url(#clipPath2)"/>
      <path d="M1152.2128 461.0332 L1157.2726 449.0583 L1152.2577 452.0333 L1147.2727 449.0084 Z" clip-path="url(#clipPath2)" stroke="none"/>
      <path fill="none" d="M1126.0233 371.6056 L1159.1179 371.6056" clip-path="url(#clipPath2)"/>
      <path d="M1167.1179 371.6056 L1155.1179 366.6056 L1158.1179 371.6056 L1155.1179 376.6056 Z" clip-path="url(#clipPath2)" stroke="none"/>
      <path fill="none" d="M1218.4094 372.2571 L1249.8118 372.2571" clip-path="url(#clipPath2)"/>
      <path d="M1257.8118 372.2571 L1245.8118 367.2571 L1248.8118 372.2571 L1245.8118 377.2571 Z" clip-path="url(#clipPath2)" stroke="none"/>
      <path fill="none" d="M1239.9845 461.0542 L1239.9845 430.7247 L1249.7969 430.7247" clip-path="url(#clipPath2)"/>
      <path d="M1257.7969 430.7247 L1245.7969 425.7247 L1248.7969 430.7247 L1245.7969 435.7247 Z" clip-path="url(#clipPath2)" stroke="none"/>
      <path fill="none" d="M1333.16 425.9944 L1348.71 425.9944" clip-path="url(#clipPath2)"/>
      <path d="M1356.71 425.9944 L1344.71 420.9944 L1347.71 425.9944 L1344.71 430.9944 Z" clip-path="url(#clipPath2)" stroke="none"/>
      <path fill="none" d="M1432.1521 425.9944 L1447.656 425.9944" clip-path="url(#clipPath2)"/>
      <path d="M1455.656 425.9944 L1443.656 420.9944 L1446.656 425.9944 L1443.656 430.9944 Z" clip-path="url(#clipPath2)" stroke="none"/>
      <path fill="none" d="M1126.04 430.3107 L1138.36 430.3107 L1138.36 453.0686" clip-path="url(#clipPath2)"/>
      <path d="M1138.36 461.0686 L1143.36 449.0686 L1138.36 452.0686 L1133.36 449.0686 Z" clip-path="url(#clipPath2)" stroke="none"/>
      <path fill="none" d="M1126.0233 418.1 L1159.1179 418.1" clip-path="url(#clipPath2)"/>
      <path d="M1167.1179 418.1 L1155.1179 413.1 L1158.1179 418.1 L1155.1179 423.1 Z" clip-path="url(#clipPath2)" stroke="none"/>
      <path fill="none" d="M1218.4094 418.7515 L1249.8118 418.7515" clip-path="url(#clipPath2)"/>
      <path d="M1257.8118 418.7515 L1245.8118 413.7515 L1248.8118 418.7515 L1245.8118 423.7515 Z" clip-path="url(#clipPath2)" stroke="none"/>
      <path fill="none" d="M1006.7664 425.9944 L1042.66 425.9944" clip-path="url(#clipPath2)"/>
      <path d="M1050.66 425.9944 L1038.66 420.9944 L1041.66 425.9944 L1038.66 430.9944 Z" clip-path="url(#clipPath2)" stroke="none"/>
      <path fill="none" d="M1531.052 379.5 L1559.196 379.5" clip-path="url(#clipPath2)"/>
      <path d="M1567.196 379.5 L1555.196 374.5 L1558.196 379.5 L1555.196 384.5 Z" clip-path="url(#clipPath2)" stroke="none"/>
      <path fill="none" d="M1531.052 425.9944 L1559.196 425.9944" clip-path="url(#clipPath2)"/>
      <path d="M1567.196 425.9944 L1555.196 420.9944 L1558.196 425.9944 L1555.196 430.9944 Z" clip-path="url(#clipPath2)" stroke="none"/>
      <path fill="none" d="M1148.0741 536.7543 L1148.0741 579.5917" clip-path="url(#clipPath2)"/>
      <path d="M1148.0741 587.5917 L1153.0741 575.5917 L1148.0741 578.5917 L1143.0741 575.5917 Z" clip-path="url(#clipPath2)" stroke="none"/>
      <path fill="none" d="M1238.2235 587.5917 L1238.2235 544.7447" clip-path="url(#clipPath2)"/>
      <path d="M1238.2235 536.7447 L1233.2235 548.7447 L1238.2235 545.7447 L1243.2235 548.7447 Z" clip-path="url(#clipPath2)" stroke="none"/>
    </g>
  </g>
</svg>
