<?xml version="1.0" encoding="UTF-8"?><svg xmlns="http://www.w3.org/2000/svg" xmlns:xlink="http://www.w3.org/1999/xlink" fill-opacity="1" color-rendering="auto" color-interpolation="auto" text-rendering="auto" stroke="black" stroke-linecap="square" width="652" stroke-miterlimit="10" shape-rendering="auto" stroke-opacity="1" fill="black" stroke-dasharray="none" font-weight="normal" stroke-width="1" height="619" font-family="'Dialog'" font-style="normal" stroke-linejoin="miter" font-size="12px" stroke-dashoffset="0" image-rendering="auto">
  <!--Generated by ySVG 2.6-->
  <defs id="genericDefs"/>
  <g>
    <defs id="defs1">
      <clipPath clipPathUnits="userSpaceOnUse" id="clipPath1">
        <path d="M0 0 L652 0 L652 619 L0 619 L0 0 Z"/>
      </clipPath>
      <clipPath clipPathUnits="userSpaceOnUse" id="clipPath2">
        <path d="M-413 1 L239 1 L239 620 L-413 620 L-413 1 Z"/>
      </clipPath>
      <clipPath clipPathUnits="userSpaceOnUse" id="clipPath3">
        <path d="M-419.8542 350.2255 L-419.8542 -301.7745 L199.1458 -301.7745 L199.1458 350.2255 L-419.8542 350.2255 Z"/>
      </clipPath>
      <clipPath clipPathUnits="userSpaceOnUse" id="clipPath4">
        <path d="M-233.7927 350.2255 L-233.7927 -301.7745 L385.2073 -301.7745 L385.2073 350.2255 L-233.7927 350.2255 Z"/>
      </clipPath>
    </defs>
    <g fill="white" text-rendering="geometricPrecision" shape-rendering="geometricPrecision" transform="translate(413,-1)" stroke="white">
      <rect x="-413" width="652" height="619" y="1" clip-path="url(#clipPath2)" stroke="none"/>
    </g>
    <g fill="rgb(221,221,221)" text-rendering="geometricPrecision" shape-rendering="geometricPrecision" transform="matrix(1,0,0,1,413,-1)" stroke="rgb(221,221,221)">
      <rect x="-311.78" width="449.2" height="587.8667" y="16.3667" clip-path="url(#clipPath2)" stroke="none"/>
    </g>
    <g text-rendering="geometricPrecision" stroke-miterlimit="1.45" shape-rendering="geometricPrecision" transform="matrix(1,0,0,1,413,-1)" stroke-linecap="butt">
      <rect fill="none" x="-311.78" width="449.2" height="587.8667" y="16.3667" clip-path="url(#clipPath2)"/>
      <text x="53.3907" y="34.4311" clip-path="url(#clipPath2)" font-family="sans-serif" stroke="none" font-weight="bold" xml:space="preserve">smartnic_app</text>
      <rect fill="none" x="-294.3" width="192.04" height="232.64" y="89.16" clip-path="url(#clipPath2)"/>
      <text x="-258.6374" y="107.2245" clip-path="url(#clipPath2)" font-family="sans-serif" stroke="none" font-weight="bold" xml:space="preserve">smartnic_app_igr_p4</text>
      <text x="-372.9389" xml:space="preserve" y="232.5139" clip-path="url(#clipPath2)" font-family="sans-serif" stroke="none">P0</text>
      <text x="-372.9389" xml:space="preserve" y="273.5139" clip-path="url(#clipPath2)" font-family="sans-serif" stroke="none">P1</text>
      <text x="-372.9389" xml:space="preserve" y="419.0139" clip-path="url(#clipPath2)" font-family="sans-serif" stroke="none">P0</text>
      <text x="-372.9389" xml:space="preserve" y="460.0139" clip-path="url(#clipPath2)" font-family="sans-serif" stroke="none">P1</text>
      <text x="180.9961" xml:space="preserve" y="208.0139" clip-path="url(#clipPath2)" font-family="sans-serif" stroke="none">PF0</text>
      <text x="180.9961" xml:space="preserve" y="235.5139" clip-path="url(#clipPath2)" font-family="sans-serif" stroke="none">PF1</text>
      <text x="166.6553" xml:space="preserve" y="280.5139" clip-path="url(#clipPath2)" font-family="sans-serif" stroke="none">PF0_VF0</text>
      <text x="166.6553" xml:space="preserve" y="303.0139" clip-path="url(#clipPath2)" font-family="sans-serif" stroke="none">PF1_VF0</text>
      <text x="166.6553" xml:space="preserve" y="140.1739" clip-path="url(#clipPath2)" font-family="sans-serif" stroke="none">PF0_VF1</text>
      <text x="166.6553" xml:space="preserve" y="538.0139" clip-path="url(#clipPath2)" font-family="sans-serif" stroke="none">PF1_VF1</text>
      <text x="180.9961" xml:space="preserve" y="486.5139" clip-path="url(#clipPath2)" font-family="sans-serif" stroke="none">PF1</text>
      <text x="180.9961" xml:space="preserve" y="464.5139" clip-path="url(#clipPath2)" font-family="sans-serif" stroke="none">PF0</text>
      <text x="166.6553" xml:space="preserve" y="394.0139" clip-path="url(#clipPath2)" font-family="sans-serif" stroke="none">PF0_VF0</text>
      <text x="166.6553" xml:space="preserve" y="417.5139" clip-path="url(#clipPath2)" font-family="sans-serif" stroke="none">PF1_VF0</text>
      <text x="166.6553" xml:space="preserve" y="161.0139" clip-path="url(#clipPath2)" font-family="sans-serif" stroke="none">PF0_VF1</text>
      <text x="166.6553" xml:space="preserve" y="560.5139" clip-path="url(#clipPath2)" font-family="sans-serif" stroke="none">PF1_VF1</text>
    </g>
    <g fill="rgb(153,204,255)" text-rendering="geometricPrecision" shape-rendering="geometricPrecision" transform="matrix(1,0,0,1,413,-1)" stroke="rgb(153,204,255)">
      <rect x="-85.9" width="30" height="140" y="362.3" clip-path="url(#clipPath2)" stroke="none"/>
    </g>
    <g text-rendering="geometricPrecision" stroke-miterlimit="1.45" shape-rendering="geometricPrecision" transform="matrix(1,0,0,1,413,-1)" stroke-linecap="butt">
      <rect fill="none" x="-85.9" width="30" height="140" y="362.3" clip-path="url(#clipPath2)"/>
    </g>
    <g font-size="10px" stroke-linecap="butt" transform="matrix(0,1,-1,0,350.2255,419.8542)" text-rendering="geometricPrecision" font-family="sans-serif" shape-rendering="geometricPrecision" stroke-miterlimit="1.45">
      <text x="2" xml:space="preserve" y="12.0537" clip-path="url(#clipPath3)" stroke="none">mux</text>
    </g>
    <g fill="rgb(153,204,255)" text-rendering="geometricPrecision" shape-rendering="geometricPrecision" transform="matrix(1,0,0,1,413,-1)" stroke="rgb(153,204,255)">
      <rect x="-85.9" width="30" height="140" y="181.8" clip-path="url(#clipPath2)" stroke="none"/>
    </g>
    <g text-rendering="geometricPrecision" stroke-miterlimit="1.45" shape-rendering="geometricPrecision" transform="matrix(1,0,0,1,413,-1)" stroke-linecap="butt">
      <rect fill="none" x="-85.9" width="30" height="140" y="181.8" clip-path="url(#clipPath2)"/>
    </g>
    <g font-size="10px" stroke-linecap="butt" transform="matrix(0,1,-1,0,350.2255,233.7927)" text-rendering="geometricPrecision" font-family="sans-serif" shape-rendering="geometricPrecision" stroke-miterlimit="1.45">
      <text x="2" xml:space="preserve" y="12.0537" clip-path="url(#clipPath4)" stroke="none">demux</text>
    </g>
    <g fill="rgb(153,204,255)" text-rendering="geometricPrecision" shape-rendering="geometricPrecision" transform="matrix(1,0,0,1,413,-1)" stroke="rgb(153,204,255)">
      <rect x="-34.4" width="129.2" height="77" y="244.8" clip-path="url(#clipPath2)" stroke="none"/>
    </g>
    <g text-rendering="geometricPrecision" stroke-miterlimit="1.45" shape-rendering="geometricPrecision" transform="matrix(1,0,0,1,413,-1)" stroke-linecap="butt">
      <rect fill="none" x="-34.4" width="129.2" height="77" y="244.8" clip-path="url(#clipPath2)"/>
      <text x="-19.8186" y="288.0139" clip-path="url(#clipPath2)" font-family="sans-serif" stroke="none" font-weight="bold" xml:space="preserve">smartnic_app_igr</text>
    </g>
    <g fill="rgb(153,204,255)" text-rendering="geometricPrecision" shape-rendering="geometricPrecision" transform="matrix(1,0,0,1,413,-1)" stroke="rgb(153,204,255)">
      <rect x="-34.4" width="129.2" height="77" y="362.3" clip-path="url(#clipPath2)" stroke="none"/>
    </g>
    <g text-rendering="geometricPrecision" stroke-miterlimit="1.45" shape-rendering="geometricPrecision" transform="matrix(1,0,0,1,413,-1)" stroke-linecap="butt">
      <rect fill="none" x="-34.4" width="129.2" height="77" y="362.3" clip-path="url(#clipPath2)"/>
      <text x="-21.4885" y="405.5139" clip-path="url(#clipPath2)" font-family="sans-serif" stroke="none" font-weight="bold" xml:space="preserve">smartnic_app_egr</text>
    </g>
    <g fill="lime" text-rendering="geometricPrecision" shape-rendering="geometricPrecision" transform="matrix(1,0,0,1,413,-1)" stroke="lime">
      <path d="M116.3 123.9 L125.3 123.9 L120.8 133.9 Z" fill-rule="evenodd" clip-path="url(#clipPath2)" stroke="none"/>
    </g>
    <g text-rendering="geometricPrecision" stroke-miterlimit="1.45" shape-rendering="geometricPrecision" transform="matrix(1,0,0,1,413,-1)" stroke-linecap="butt">
      <path fill="none" d="M116.3 123.9 L125.3 123.9 L120.8 133.9 Z" fill-rule="evenodd" clip-path="url(#clipPath2)"/>
    </g>
    <g fill="lime" text-rendering="geometricPrecision" shape-rendering="geometricPrecision" transform="matrix(1,0,0,1,413,-1)" stroke="lime">
      <path d="M116.3 145.52 L125.3 145.52 L120.8 155.52 Z" fill-rule="evenodd" clip-path="url(#clipPath2)" stroke="none"/>
    </g>
    <g text-rendering="geometricPrecision" stroke-miterlimit="1.45" shape-rendering="geometricPrecision" transform="matrix(1,0,0,1,413,-1)" stroke-linecap="butt">
      <path fill="none" d="M116.3 145.52 L125.3 145.52 L120.8 155.52 Z" fill-rule="evenodd" clip-path="url(#clipPath2)"/>
    </g>
    <g fill="lime" text-rendering="geometricPrecision" shape-rendering="geometricPrecision" transform="matrix(1,0,0,1,413,-1)" stroke="lime">
      <path d="M116.3 522.6334 L125.3 522.6334 L120.8 532.6334 Z" fill-rule="evenodd" clip-path="url(#clipPath2)" stroke="none"/>
    </g>
    <g text-rendering="geometricPrecision" stroke-miterlimit="1.45" shape-rendering="geometricPrecision" transform="matrix(1,0,0,1,413,-1)" stroke-linecap="butt">
      <path fill="none" d="M116.3 522.6334 L125.3 522.6334 L120.8 532.6334 Z" fill-rule="evenodd" clip-path="url(#clipPath2)"/>
    </g>
    <g fill="lime" text-rendering="geometricPrecision" shape-rendering="geometricPrecision" transform="matrix(1,0,0,1,413,-1)" stroke="lime">
      <path d="M116.3 545.1334 L125.3 545.1334 L120.8 555.1334 Z" fill-rule="evenodd" clip-path="url(#clipPath2)" stroke="none"/>
    </g>
    <g text-rendering="geometricPrecision" stroke-miterlimit="1.45" shape-rendering="geometricPrecision" transform="matrix(1,0,0,1,413,-1)" stroke-linecap="butt">
      <path fill="none" d="M116.3 545.1334 L125.3 545.1334 L120.8 555.1334 Z" fill-rule="evenodd" clip-path="url(#clipPath2)"/>
    </g>
    <g fill="lime" text-rendering="geometricPrecision" shape-rendering="geometricPrecision" transform="matrix(1,0,0,1,413,-1)" stroke="lime">
      <path d="M116.3 450.8 L125.3 450.8 L120.8 460.8 Z" fill-rule="evenodd" clip-path="url(#clipPath2)" stroke="none"/>
    </g>
    <g text-rendering="geometricPrecision" stroke-miterlimit="1.45" shape-rendering="geometricPrecision" transform="matrix(1,0,0,1,413,-1)" stroke-linecap="butt">
      <path fill="none" d="M116.3 450.8 L125.3 450.8 L120.8 460.8 Z" fill-rule="evenodd" clip-path="url(#clipPath2)"/>
    </g>
    <g fill="lime" text-rendering="geometricPrecision" shape-rendering="geometricPrecision" transform="matrix(1,0,0,1,413,-1)" stroke="lime">
      <path d="M116.3 473.3 L125.3 473.3 L120.8 483.3 Z" fill-rule="evenodd" clip-path="url(#clipPath2)" stroke="none"/>
    </g>
    <g text-rendering="geometricPrecision" stroke-miterlimit="1.45" shape-rendering="geometricPrecision" transform="matrix(1,0,0,1,413,-1)" stroke-linecap="butt">
      <path fill="none" d="M116.3 473.3 L125.3 473.3 L120.8 483.3 Z" fill-rule="evenodd" clip-path="url(#clipPath2)"/>
    </g>
    <g fill="lime" text-rendering="geometricPrecision" shape-rendering="geometricPrecision" transform="matrix(1,0,0,1,413,-1)" stroke="lime">
      <path d="M116.3 379.8 L125.3 379.8 L120.8 389.8 Z" fill-rule="evenodd" clip-path="url(#clipPath2)" stroke="none"/>
    </g>
    <g text-rendering="geometricPrecision" stroke-miterlimit="1.45" shape-rendering="geometricPrecision" transform="matrix(1,0,0,1,413,-1)" stroke-linecap="butt">
      <path fill="none" d="M116.3 379.8 L125.3 379.8 L120.8 389.8 Z" fill-rule="evenodd" clip-path="url(#clipPath2)"/>
    </g>
    <g fill="lime" text-rendering="geometricPrecision" shape-rendering="geometricPrecision" transform="matrix(1,0,0,1,413,-1)" stroke="lime">
      <path d="M116.3 404.3 L125.3 404.3 L120.8 414.3 Z" fill-rule="evenodd" clip-path="url(#clipPath2)" stroke="none"/>
    </g>
    <g text-rendering="geometricPrecision" stroke-miterlimit="1.45" shape-rendering="geometricPrecision" transform="matrix(1,0,0,1,413,-1)" stroke-linecap="butt">
      <path fill="none" d="M116.3 404.3 L125.3 404.3 L120.8 414.3 Z" fill-rule="evenodd" clip-path="url(#clipPath2)"/>
    </g>
    <g fill="lime" text-rendering="geometricPrecision" shape-rendering="geometricPrecision" transform="matrix(1,0,0,1,413,-1)" stroke="lime">
      <path d="M116.3 264.9 L125.3 264.9 L120.8 274.9 Z" fill-rule="evenodd" clip-path="url(#clipPath2)" stroke="none"/>
    </g>
    <g text-rendering="geometricPrecision" stroke-miterlimit="1.45" shape-rendering="geometricPrecision" transform="matrix(1,0,0,1,413,-1)" stroke-linecap="butt">
      <path fill="none" d="M116.3 264.9 L125.3 264.9 L120.8 274.9 Z" fill-rule="evenodd" clip-path="url(#clipPath2)"/>
    </g>
    <g fill="lime" text-rendering="geometricPrecision" shape-rendering="geometricPrecision" transform="matrix(1,0,0,1,413,-1)" stroke="lime">
      <path d="M116.3 289.8 L125.3 289.8 L120.8 299.8 Z" fill-rule="evenodd" clip-path="url(#clipPath2)" stroke="none"/>
    </g>
    <g text-rendering="geometricPrecision" stroke-miterlimit="1.45" shape-rendering="geometricPrecision" transform="matrix(1,0,0,1,413,-1)" stroke-linecap="butt">
      <path fill="none" d="M116.3 289.8 L125.3 289.8 L120.8 299.8 Z" fill-rule="evenodd" clip-path="url(#clipPath2)"/>
    </g>
    <g fill="lime" text-rendering="geometricPrecision" shape-rendering="geometricPrecision" transform="matrix(1,0,0,1,413,-1)" stroke="lime">
      <path d="M116.3 194.1 L125.3 194.1 L120.8 204.1 Z" fill-rule="evenodd" clip-path="url(#clipPath2)" stroke="none"/>
    </g>
    <g text-rendering="geometricPrecision" stroke-miterlimit="1.45" shape-rendering="geometricPrecision" transform="matrix(1,0,0,1,413,-1)" stroke-linecap="butt">
      <path fill="none" d="M116.3 194.1 L125.3 194.1 L120.8 204.1 Z" fill-rule="evenodd" clip-path="url(#clipPath2)"/>
    </g>
    <g fill="lime" text-rendering="geometricPrecision" shape-rendering="geometricPrecision" transform="matrix(1,0,0,1,413,-1)" stroke="lime">
      <path d="M116.3 221.4 L125.3 221.4 L120.8 231.4 Z" fill-rule="evenodd" clip-path="url(#clipPath2)" stroke="none"/>
    </g>
    <g text-rendering="geometricPrecision" stroke-miterlimit="1.45" shape-rendering="geometricPrecision" transform="matrix(1,0,0,1,413,-1)" stroke-linecap="butt">
      <path fill="none" d="M116.3 221.4 L125.3 221.4 L120.8 231.4 Z" fill-rule="evenodd" clip-path="url(#clipPath2)"/>
    </g>
    <g fill="rgb(153,204,255)" text-rendering="geometricPrecision" shape-rendering="geometricPrecision" transform="matrix(1,0,0,1,413,-1)" stroke="rgb(153,204,255)">
      <rect x="-257.43" width="120.35" height="100.8" y="204.7" clip-path="url(#clipPath2)" stroke="none"/>
    </g>
    <g text-rendering="geometricPrecision" stroke-miterlimit="1.45" shape-rendering="geometricPrecision" transform="matrix(1,0,0,1,413,-1)" stroke-linecap="butt">
      <rect fill="none" x="-257.43" width="120.35" height="100.8" y="204.7" clip-path="url(#clipPath2)"/>
      <text x="-218.9376" xml:space="preserve" y="259.8139" clip-path="url(#clipPath2)" font-family="sans-serif" stroke="none">p4_proc</text>
    </g>
    <g fill="rgb(153,204,255)" text-rendering="geometricPrecision" shape-rendering="geometricPrecision" transform="matrix(1,0,0,1,413,-1)" stroke="rgb(153,204,255)">
      <rect x="-257.43" width="120.35" height="40.4" y="123.9" clip-path="url(#clipPath2)" stroke="none"/>
    </g>
    <g text-rendering="geometricPrecision" stroke-miterlimit="1.45" shape-rendering="geometricPrecision" transform="matrix(1,0,0,1,413,-1)" stroke-linecap="butt">
      <rect fill="none" x="-257.43" width="120.35" height="40.4" y="123.9" clip-path="url(#clipPath2)"/>
      <text x="-252.6202" xml:space="preserve" y="148.8139" clip-path="url(#clipPath2)" font-family="sans-serif" stroke="none">vitisnetp4_igr_extern</text>
    </g>
    <g fill="rgb(153,204,255)" text-rendering="geometricPrecision" shape-rendering="geometricPrecision" transform="matrix(1,0,0,1,413,-1)" stroke="rgb(153,204,255)">
      <rect x="-257.43" width="120.35" height="40.4" y="164.3" clip-path="url(#clipPath2)" stroke="none"/>
    </g>
    <g text-rendering="geometricPrecision" stroke-miterlimit="1.45" shape-rendering="geometricPrecision" transform="matrix(1,0,0,1,413,-1)" stroke-linecap="butt">
      <rect fill="none" x="-257.43" width="120.35" height="40.4" y="164.3" clip-path="url(#clipPath2)"/>
      <text x="-222.6027" xml:space="preserve" y="189.2139" clip-path="url(#clipPath2)" font-family="sans-serif" stroke="none">vitisnetp4</text>
    </g>
    <g fill="red" text-rendering="geometricPrecision" shape-rendering="geometricPrecision" transform="matrix(1,0,0,1,413,-1)" stroke="red">
      <path d="M-121.68 209.16 L-112.68 209.16 L-117.18 219.16 Z" fill-rule="evenodd" clip-path="url(#clipPath2)" stroke="none"/>
    </g>
    <g text-rendering="geometricPrecision" stroke-miterlimit="1.45" shape-rendering="geometricPrecision" transform="matrix(1,0,0,1,413,-1)" stroke-linecap="butt">
      <path fill="none" d="M-121.68 209.16 L-112.68 209.16 L-117.18 219.16 Z" fill-rule="evenodd" clip-path="url(#clipPath2)"/>
    </g>
    <g fill="red" text-rendering="geometricPrecision" shape-rendering="geometricPrecision" transform="matrix(1,0,0,1,413,-1)" stroke="red">
      <path d="M-121.68 275.44 L-112.68 275.44 L-117.18 285.44 Z" fill-rule="evenodd" clip-path="url(#clipPath2)" stroke="none"/>
    </g>
    <g text-rendering="geometricPrecision" stroke-miterlimit="1.45" shape-rendering="geometricPrecision" transform="matrix(1,0,0,1,413,-1)" stroke-linecap="butt">
      <path fill="none" d="M-121.68 275.44 L-112.68 275.44 L-117.18 285.44 Z" fill-rule="evenodd" clip-path="url(#clipPath2)"/>
      <rect fill="none" x="-294.3" width="192.04" height="232.64" y="345.9" clip-path="url(#clipPath2)"/>
      <text x="-260.3073" y="363.9644" clip-path="url(#clipPath2)" font-family="sans-serif" stroke="none" font-weight="bold" xml:space="preserve">smartnic_app_egr_p4</text>
    </g>
    <g fill="rgb(153,204,255)" text-rendering="geometricPrecision" shape-rendering="geometricPrecision" transform="matrix(1,0,0,1,413,-1)" stroke="rgb(153,204,255)">
      <rect x="-257.43" width="120.35" height="100.8" y="381.9" clip-path="url(#clipPath2)" stroke="none"/>
    </g>
    <g text-rendering="geometricPrecision" stroke-miterlimit="1.45" shape-rendering="geometricPrecision" transform="matrix(1,0,0,1,413,-1)" stroke-linecap="butt">
      <rect fill="none" x="-257.43" width="120.35" height="100.8" y="381.9" clip-path="url(#clipPath2)"/>
      <text x="-218.9376" xml:space="preserve" y="437.0139" clip-path="url(#clipPath2)" font-family="sans-serif" stroke="none">p4_proc</text>
    </g>
    <g fill="rgb(153,204,255)" text-rendering="geometricPrecision" shape-rendering="geometricPrecision" transform="matrix(1,0,0,1,413,-1)" stroke="rgb(153,204,255)">
      <rect x="-257.43" width="120.35" height="40.4" y="523.1" clip-path="url(#clipPath2)" stroke="none"/>
    </g>
    <g text-rendering="geometricPrecision" stroke-miterlimit="1.45" shape-rendering="geometricPrecision" transform="matrix(1,0,0,1,413,-1)" stroke-linecap="butt">
      <rect fill="none" x="-257.43" width="120.35" height="40.4" y="523.1" clip-path="url(#clipPath2)"/>
      <text x="-254.6241" xml:space="preserve" y="548.0139" clip-path="url(#clipPath2)" font-family="sans-serif" stroke="none">vitisnetp4_egr_extern</text>
    </g>
    <g fill="rgb(153,204,255)" text-rendering="geometricPrecision" shape-rendering="geometricPrecision" transform="matrix(1,0,0,1,413,-1)" stroke="rgb(153,204,255)">
      <rect x="-257.43" width="120.35" height="40.4" y="482.7" clip-path="url(#clipPath2)" stroke="none"/>
    </g>
    <g text-rendering="geometricPrecision" stroke-miterlimit="1.45" shape-rendering="geometricPrecision" transform="matrix(1,0,0,1,413,-1)" stroke-linecap="butt">
      <rect fill="none" x="-257.43" width="120.35" height="40.4" y="482.7" clip-path="url(#clipPath2)"/>
      <text x="-222.6027" xml:space="preserve" y="507.6139" clip-path="url(#clipPath2)" font-family="sans-serif" stroke="none">vitisnetp4</text>
    </g>
    <g fill="lime" text-rendering="geometricPrecision" shape-rendering="geometricPrecision" transform="matrix(1,0,0,1,413,-1)" stroke="lime">
      <path d="M-294.3 29.1267 L-285.3 29.1267 L-289.8 39.1267 Z" fill-rule="evenodd" clip-path="url(#clipPath2)" stroke="none"/>
    </g>
    <g text-rendering="geometricPrecision" stroke-miterlimit="1.45" shape-rendering="geometricPrecision" transform="matrix(1,0,0,1,413,-1)" stroke-linecap="butt">
      <path fill="none" d="M-294.3 29.1267 L-285.3 29.1267 L-289.8 39.1267 Z" fill-rule="evenodd" clip-path="url(#clipPath2)"/>
      <text x="-274.1283" xml:space="preserve" y="38.8405" clip-path="url(#clipPath2)" font-family="sans-serif" stroke="none">=  Probe counter</text>
    </g>
    <g fill="red" text-rendering="geometricPrecision" shape-rendering="geometricPrecision" transform="matrix(1,0,0,1,413,-1)" stroke="red">
      <path d="M-294.3 49.16 L-285.3 49.16 L-289.8 59.16 Z" fill-rule="evenodd" clip-path="url(#clipPath2)" stroke="none"/>
    </g>
    <g text-rendering="geometricPrecision" stroke-miterlimit="1.45" shape-rendering="geometricPrecision" transform="matrix(1,0,0,1,413,-1)" stroke-linecap="butt">
      <path fill="none" d="M-294.3 49.16 L-285.3 49.16 L-289.8 59.16 Z" fill-rule="evenodd" clip-path="url(#clipPath2)"/>
      <text x="-272.7895" xml:space="preserve" y="58.8739" clip-path="url(#clipPath2)" font-family="sans-serif" stroke="none">=  Drop counter </text>
    </g>
    <g fill="red" text-rendering="geometricPrecision" shape-rendering="geometricPrecision" transform="matrix(1,0,0,1,413,-1)" stroke="red">
      <path d="M-278.8 403.92 L-269.8 403.92 L-274.3 413.92 Z" fill-rule="evenodd" clip-path="url(#clipPath2)" stroke="none"/>
    </g>
    <g text-rendering="geometricPrecision" stroke-miterlimit="1.45" shape-rendering="geometricPrecision" transform="matrix(1,0,0,1,413,-1)" stroke-linecap="butt">
      <path fill="none" d="M-278.8 403.92 L-269.8 403.92 L-274.3 413.92 Z" fill-rule="evenodd" clip-path="url(#clipPath2)"/>
    </g>
    <g fill="red" text-rendering="geometricPrecision" shape-rendering="geometricPrecision" transform="matrix(1,0,0,1,413,-1)" stroke="red">
      <path d="M-278.8 443.92 L-269.8 443.92 L-274.3 453.92 Z" fill-rule="evenodd" clip-path="url(#clipPath2)" stroke="none"/>
    </g>
    <g text-rendering="geometricPrecision" stroke-miterlimit="1.45" shape-rendering="geometricPrecision" transform="matrix(1,0,0,1,413,-1)" stroke-linecap="butt">
      <path fill="none" d="M-278.8 443.92 L-269.8 443.92 L-274.3 453.92 Z" fill-rule="evenodd" clip-path="url(#clipPath2)"/>
      <path fill="none" d="M160.4736 458.8 L-47.9 458.8" clip-path="url(#clipPath2)"/>
      <path d="M-55.9 458.8 L-43.9 463.8 L-46.9 458.8 L-43.9 453.8 Z" clip-path="url(#clipPath2)" stroke="none"/>
      <path fill="none" d="M160.4736 482.8 L-47.9 482.8" clip-path="url(#clipPath2)"/>
      <path d="M-55.9 482.8 L-43.9 487.8 L-46.9 482.8 L-43.9 477.8 Z" clip-path="url(#clipPath2)" stroke="none"/>
      <path fill="none" d="M-55.9 203.3 L152.4736 203.3" clip-path="url(#clipPath2)"/>
      <path d="M160.4736 203.3 L148.4736 198.3 L151.4736 203.3 L148.4736 208.3 Z" clip-path="url(#clipPath2)" stroke="none"/>
      <path fill="none" d="M-55.9 230.05 L152.4736 230.05" clip-path="url(#clipPath2)"/>
      <path d="M160.4736 230.05 L148.4736 225.05 L151.4736 230.05 L148.4736 235.05 Z" clip-path="url(#clipPath2)" stroke="none"/>
      <path fill="none" d="M-55.9 301.05 L-42.442 301.05" clip-path="url(#clipPath2)"/>
      <path d="M-34.442 301.05 L-46.442 296.05 L-43.442 301.05 L-46.442 306.05 Z" clip-path="url(#clipPath2)" stroke="none"/>
      <path fill="none" d="M-55.9 265.55 L-42.442 265.55" clip-path="url(#clipPath2)"/>
      <path d="M-34.442 265.55 L-46.442 260.55 L-43.442 265.55 L-46.442 270.55 Z" clip-path="url(#clipPath2)" stroke="none"/>
      <path fill="none" d="M94.8321 275.05 L152.4679 275.05" clip-path="url(#clipPath2)"/>
      <path d="M160.4679 275.05 L148.4679 270.05 L151.4679 275.05 L148.4679 280.05 Z" clip-path="url(#clipPath2)" stroke="none"/>
      <path fill="none" d="M94.8321 299.05 L152.4679 299.05" clip-path="url(#clipPath2)"/>
      <path d="M160.4679 299.05 L148.4679 294.05 L151.4679 299.05 L148.4679 304.05 Z" clip-path="url(#clipPath2)" stroke="none"/>
      <path fill="none" d="M160.4679 413.05 L102.8321 413.05" clip-path="url(#clipPath2)"/>
      <path d="M94.8321 413.05 L106.8321 418.05 L103.8321 413.05 L106.8321 408.05 Z" clip-path="url(#clipPath2)" stroke="none"/>
      <path fill="none" d="M160.4679 389.05 L102.8321 389.05" clip-path="url(#clipPath2)"/>
      <path d="M94.8321 389.05 L106.8321 394.05 L103.8321 389.05 L106.8321 384.05 Z" clip-path="url(#clipPath2)" stroke="none"/>
      <path fill="none" d="M0.3532 321.8 L0.3532 354.2604" clip-path="url(#clipPath2)"/>
      <path d="M0.3532 362.2604 L5.3532 350.2604 L0.3532 353.2604 L-4.6468 350.2604 Z" clip-path="url(#clipPath2)" stroke="none"/>
      <path fill="none" d="M60.0468 321.8 L60.0468 354.2604" clip-path="url(#clipPath2)"/>
      <path d="M60.0468 362.2604 L65.0468 350.2604 L60.0468 353.2604 L55.0468 350.2604 Z" clip-path="url(#clipPath2)" stroke="none"/>
      <path fill="none" d="M-34.442 383.05 L-47.9 383.05" clip-path="url(#clipPath2)"/>
      <path d="M-55.9 383.05 L-43.9 388.05 L-46.9 383.05 L-43.9 378.05 Z" clip-path="url(#clipPath2)" stroke="none"/>
      <path fill="none" d="M-34.442 418.55 L-47.9 418.55" clip-path="url(#clipPath2)"/>
      <path d="M-55.9 418.55 L-43.9 423.55 L-46.9 418.55 L-43.9 413.55 Z" clip-path="url(#clipPath2)" stroke="none"/>
      <path fill="none" d="M-334.1 227.8 L-265.4279 227.8" clip-path="url(#clipPath2)"/>
      <path d="M-257.4279 227.8 L-269.4279 222.8 L-266.4279 227.8 L-269.4279 232.8 Z" clip-path="url(#clipPath2)" stroke="none"/>
      <path fill="none" d="M-334.1 268.8 L-265.4448 268.8" clip-path="url(#clipPath2)"/>
      <path d="M-257.4448 268.8 L-269.4448 263.8 L-266.4448 268.8 L-269.4448 273.8 Z" clip-path="url(#clipPath2)" stroke="none"/>
      <path fill="none" d="M-137.0412 285.3 L-93.9499 285.3" clip-path="url(#clipPath2)"/>
      <path d="M-85.9499 285.3 L-97.9499 280.3 L-94.9499 285.3 L-97.9499 290.3 Z" clip-path="url(#clipPath2)" stroke="none"/>
      <path fill="none" d="M-137.0573 218.3 L-93.95 218.3" clip-path="url(#clipPath2)"/>
      <path d="M-85.95 218.3 L-97.95 213.3 L-94.95 218.3 L-97.95 223.3 Z" clip-path="url(#clipPath2)" stroke="none"/>
      <path fill="none" d="M-137.0602 135.46 L152.5 135.46" clip-path="url(#clipPath2)"/>
      <path d="M160.5 135.46 L148.5 130.46 L151.5 135.46 L148.5 140.46 Z" clip-path="url(#clipPath2)" stroke="none"/>
      <path fill="none" d="M-129.0602 156.3 L160.5 156.3" clip-path="url(#clipPath2)"/>
      <path d="M-137.0602 156.3 L-125.0602 161.3 L-128.0602 156.3 L-125.0602 151.3 Z" clip-path="url(#clipPath2)" stroke="none"/>
      <path fill="none" d="M-85.95 398.8 L-129.0666 398.8" clip-path="url(#clipPath2)"/>
      <path d="M-137.0666 398.8 L-125.0666 403.8 L-128.0666 398.8 L-125.0666 393.8 Z" clip-path="url(#clipPath2)" stroke="none"/>
      <path fill="none" d="M-85.95 465.8 L-129.0666 465.8" clip-path="url(#clipPath2)"/>
      <path d="M-137.0666 465.8 L-125.0666 470.8 L-128.0666 465.8 L-125.0666 460.8 Z" clip-path="url(#clipPath2)" stroke="none"/>
      <path fill="none" d="M-257.4541 414.3 L-326.1 414.3" clip-path="url(#clipPath2)"/>
      <path d="M-334.1 414.3 L-322.1 419.3 L-325.1 414.3 L-322.1 409.3 Z" clip-path="url(#clipPath2)" stroke="none"/>
      <path fill="none" d="M-257.4416 455.3 L-326.1 455.3" clip-path="url(#clipPath2)"/>
      <path d="M-334.1 455.3 L-322.1 460.3 L-325.1 455.3 L-322.1 450.3 Z" clip-path="url(#clipPath2)" stroke="none"/>
      <path fill="none" d="M-137.0752 533.6501 L152.4637 533.3094" clip-path="url(#clipPath2)"/>
      <path d="M160.4637 533.3 L148.4578 528.3141 L151.4637 533.3106 L148.4696 538.3141 Z" clip-path="url(#clipPath2)" stroke="none"/>
      <path fill="none" d="M-129.0661 555.8 L160.5 555.8" clip-path="url(#clipPath2)"/>
      <path d="M-137.0661 555.8 L-125.0661 560.8 L-128.0661 555.8 L-125.0661 550.8 Z" clip-path="url(#clipPath2)" stroke="none"/>
    </g>
  </g>
</svg>
