<?xml version="1.0" encoding="UTF-8"?><svg xmlns="http://www.w3.org/2000/svg" xmlns:xlink="http://www.w3.org/1999/xlink" fill-opacity="1" color-rendering="auto" color-interpolation="auto" text-rendering="auto" stroke="black" stroke-linecap="square" width="663" stroke-miterlimit="10" shape-rendering="auto" stroke-opacity="1" fill="black" stroke-dasharray="none" font-weight="normal" stroke-width="1" height="619" font-family="'Dialog'" font-style="normal" stroke-linejoin="miter" font-size="12px" stroke-dashoffset="0" image-rendering="auto">
  <!--Generated by ySVG 2.6-->
  <defs id="genericDefs"/>
  <g>
    <defs id="defs1">
      <clipPath clipPathUnits="userSpaceOnUse" id="clipPath1">
        <path d="M0 0 L663 0 L663 619 L0 619 L0 0 Z"/>
      </clipPath>
      <clipPath clipPathUnits="userSpaceOnUse" id="clipPath2">
        <path d="M-413 1 L250 1 L250 620 L-413 620 L-413 1 Z"/>
      </clipPath>
      <clipPath clipPathUnits="userSpaceOnUse" id="clipPath3">
        <path d="M-419.8542 350.2255 L-419.8542 -312.7745 L199.1458 -312.7745 L199.1458 350.2255 L-419.8542 350.2255 Z"/>
      </clipPath>
      <clipPath clipPathUnits="userSpaceOnUse" id="clipPath4">
        <path d="M-233.7927 350.2255 L-233.7927 -312.7745 L385.2073 -312.7745 L385.2073 350.2255 L-233.7927 350.2255 Z"/>
      </clipPath>
    </defs>
    <g fill="white" text-rendering="geometricPrecision" shape-rendering="geometricPrecision" transform="translate(413,-1)" stroke="white">
      <rect x="-413" width="663" height="619" y="1" clip-path="url(#clipPath2)" stroke="none"/>
    </g>
    <g fill="rgb(221,221,221)" text-rendering="geometricPrecision" shape-rendering="geometricPrecision" transform="matrix(1,0,0,1,413,-1)" stroke="rgb(221,221,221)">
      <rect x="-311.78" width="464.2" height="587.8667" y="16.3667" clip-path="url(#clipPath2)" stroke="none"/>
    </g>
    <g text-rendering="geometricPrecision" stroke-miterlimit="1.45" shape-rendering="geometricPrecision" transform="matrix(1,0,0,1,413,-1)" stroke-linecap="butt">
      <rect fill="none" x="-311.78" width="464.2" height="587.8667" y="16.3667" clip-path="url(#clipPath2)"/>
      <text x="68.3907" y="34.4311" clip-path="url(#clipPath2)" font-family="sans-serif" stroke="none" font-weight="bold" xml:space="preserve">smartnic_app</text>
      <rect fill="none" x="-294.3" width="192.04" height="232.64" y="89.16" clip-path="url(#clipPath2)"/>
      <text x="-258.6374" y="107.2245" clip-path="url(#clipPath2)" font-family="sans-serif" stroke="none" font-weight="bold" xml:space="preserve">smartnic_app_igr_p4</text>
      <text x="-372.9389" xml:space="preserve" y="232.5139" clip-path="url(#clipPath2)" font-family="sans-serif" stroke="none">P0</text>
      <text x="-372.9389" xml:space="preserve" y="273.5139" clip-path="url(#clipPath2)" font-family="sans-serif" stroke="none">P1</text>
      <text x="-372.9389" xml:space="preserve" y="419.0139" clip-path="url(#clipPath2)" font-family="sans-serif" stroke="none">P0</text>
      <text x="-372.9389" xml:space="preserve" y="460.0139" clip-path="url(#clipPath2)" font-family="sans-serif" stroke="none">P1</text>
      <text x="191.9161" xml:space="preserve" y="208.0139" clip-path="url(#clipPath2)" font-family="sans-serif" stroke="none">PF0</text>
      <text x="191.9161" xml:space="preserve" y="235.5139" clip-path="url(#clipPath2)" font-family="sans-serif" stroke="none">PF1</text>
      <text x="177.5753" xml:space="preserve" y="280.5139" clip-path="url(#clipPath2)" font-family="sans-serif" stroke="none">PF0_VF0</text>
      <text x="177.5753" xml:space="preserve" y="303.0139" clip-path="url(#clipPath2)" font-family="sans-serif" stroke="none">PF1_VF0</text>
      <text x="177.5753" xml:space="preserve" y="140.1739" clip-path="url(#clipPath2)" font-family="sans-serif" stroke="none">PF0_VF1</text>
      <text x="177.5753" xml:space="preserve" y="538.0139" clip-path="url(#clipPath2)" font-family="sans-serif" stroke="none">PF1_VF1</text>
      <text x="191.9161" xml:space="preserve" y="486.5139" clip-path="url(#clipPath2)" font-family="sans-serif" stroke="none">PF1</text>
      <text x="191.9161" xml:space="preserve" y="464.5139" clip-path="url(#clipPath2)" font-family="sans-serif" stroke="none">PF0</text>
      <text x="177.5753" xml:space="preserve" y="394.0139" clip-path="url(#clipPath2)" font-family="sans-serif" stroke="none">PF0_VF0</text>
      <text x="177.5753" xml:space="preserve" y="417.5139" clip-path="url(#clipPath2)" font-family="sans-serif" stroke="none">PF1_VF0</text>
      <text x="177.5753" xml:space="preserve" y="161.0139" clip-path="url(#clipPath2)" font-family="sans-serif" stroke="none">PF0_VF1</text>
      <text x="177.5753" xml:space="preserve" y="560.5139" clip-path="url(#clipPath2)" font-family="sans-serif" stroke="none">PF1_VF1</text>
    </g>
    <g fill="rgb(153,204,255)" text-rendering="geometricPrecision" shape-rendering="geometricPrecision" transform="matrix(1,0,0,1,413,-1)" stroke="rgb(153,204,255)">
      <rect x="-85.9" width="30" height="140" y="362.3" clip-path="url(#clipPath2)" stroke="none"/>
    </g>
    <g text-rendering="geometricPrecision" stroke-miterlimit="1.45" shape-rendering="geometricPrecision" transform="matrix(1,0,0,1,413,-1)" stroke-linecap="butt">
      <rect fill="none" x="-85.9" width="30" height="140" y="362.3" clip-path="url(#clipPath2)"/>
    </g>
    <g font-size="10px" stroke-linecap="butt" transform="matrix(0,1,-1,0,350.2255,419.8542)" text-rendering="geometricPrecision" font-family="sans-serif" shape-rendering="geometricPrecision" stroke-miterlimit="1.45">
      <text x="2" xml:space="preserve" y="12.0537" clip-path="url(#clipPath3)" stroke="none">mux</text>
    </g>
    <g fill="rgb(153,204,255)" text-rendering="geometricPrecision" shape-rendering="geometricPrecision" transform="matrix(1,0,0,1,413,-1)" stroke="rgb(153,204,255)">
      <rect x="-85.9" width="30" height="140" y="181.8" clip-path="url(#clipPath2)" stroke="none"/>
    </g>
    <g text-rendering="geometricPrecision" stroke-miterlimit="1.45" shape-rendering="geometricPrecision" transform="matrix(1,0,0,1,413,-1)" stroke-linecap="butt">
      <rect fill="none" x="-85.9" width="30" height="140" y="181.8" clip-path="url(#clipPath2)"/>
    </g>
    <g font-size="10px" stroke-linecap="butt" transform="matrix(0,1,-1,0,350.2255,233.7927)" text-rendering="geometricPrecision" font-family="sans-serif" shape-rendering="geometricPrecision" stroke-miterlimit="1.45">
      <text x="2" xml:space="preserve" y="12.0537" clip-path="url(#clipPath4)" stroke="none">demux</text>
    </g>
    <g fill="rgb(153,204,255)" text-rendering="geometricPrecision" shape-rendering="geometricPrecision" transform="matrix(1,0,0,1,413,-1)" stroke="rgb(153,204,255)">
      <rect x="-20.4" width="129.2" height="77" y="244.8" clip-path="url(#clipPath2)" stroke="none"/>
    </g>
    <g text-rendering="geometricPrecision" stroke-miterlimit="1.45" shape-rendering="geometricPrecision" transform="matrix(1,0,0,1,413,-1)" stroke-linecap="butt">
      <rect fill="none" x="-20.4" width="129.2" height="77" y="244.8" clip-path="url(#clipPath2)"/>
      <text x="-5.8186" y="288.0139" clip-path="url(#clipPath2)" font-family="sans-serif" stroke="none" font-weight="bold" xml:space="preserve">smartnic_app_igr</text>
    </g>
    <g fill="rgb(153,204,255)" text-rendering="geometricPrecision" shape-rendering="geometricPrecision" transform="matrix(1,0,0,1,413,-1)" stroke="rgb(153,204,255)">
      <rect x="-20.4" width="129.2" height="77" y="362.3" clip-path="url(#clipPath2)" stroke="none"/>
    </g>
    <g text-rendering="geometricPrecision" stroke-miterlimit="1.45" shape-rendering="geometricPrecision" transform="matrix(1,0,0,1,413,-1)" stroke-linecap="butt">
      <rect fill="none" x="-20.4" width="129.2" height="77" y="362.3" clip-path="url(#clipPath2)"/>
      <text x="-7.4885" y="405.5139" clip-path="url(#clipPath2)" font-family="sans-serif" stroke="none" font-weight="bold" xml:space="preserve">smartnic_app_egr</text>
    </g>
    <g fill="lime" text-rendering="geometricPrecision" shape-rendering="geometricPrecision" transform="matrix(1,0,0,1,413,-1)" stroke="lime">
      <path d="M132.42 123.9 L141.42 123.9 L136.92 133.9 Z" fill-rule="evenodd" clip-path="url(#clipPath2)" stroke="none"/>
    </g>
    <g text-rendering="geometricPrecision" stroke-miterlimit="1.45" shape-rendering="geometricPrecision" transform="matrix(1,0,0,1,413,-1)" stroke-linecap="butt">
      <path fill="none" d="M132.42 123.9 L141.42 123.9 L136.92 133.9 Z" fill-rule="evenodd" clip-path="url(#clipPath2)"/>
    </g>
    <g fill="lime" text-rendering="geometricPrecision" shape-rendering="geometricPrecision" transform="matrix(1,0,0,1,413,-1)" stroke="lime">
      <path d="M132.42 145.52 L141.42 145.52 L136.92 155.52 Z" fill-rule="evenodd" clip-path="url(#clipPath2)" stroke="none"/>
    </g>
    <g text-rendering="geometricPrecision" stroke-miterlimit="1.45" shape-rendering="geometricPrecision" transform="matrix(1,0,0,1,413,-1)" stroke-linecap="butt">
      <path fill="none" d="M132.42 145.52 L141.42 145.52 L136.92 155.52 Z" fill-rule="evenodd" clip-path="url(#clipPath2)"/>
    </g>
    <g fill="lime" text-rendering="geometricPrecision" shape-rendering="geometricPrecision" transform="matrix(1,0,0,1,413,-1)" stroke="lime">
      <path d="M132.42 522.6334 L141.42 522.6334 L136.92 532.6334 Z" fill-rule="evenodd" clip-path="url(#clipPath2)" stroke="none"/>
    </g>
    <g text-rendering="geometricPrecision" stroke-miterlimit="1.45" shape-rendering="geometricPrecision" transform="matrix(1,0,0,1,413,-1)" stroke-linecap="butt">
      <path fill="none" d="M132.42 522.6334 L141.42 522.6334 L136.92 532.6334 Z" fill-rule="evenodd" clip-path="url(#clipPath2)"/>
    </g>
    <g fill="lime" text-rendering="geometricPrecision" shape-rendering="geometricPrecision" transform="matrix(1,0,0,1,413,-1)" stroke="lime">
      <path d="M132.42 545.1334 L141.42 545.1334 L136.92 555.1334 Z" fill-rule="evenodd" clip-path="url(#clipPath2)" stroke="none"/>
    </g>
    <g text-rendering="geometricPrecision" stroke-miterlimit="1.45" shape-rendering="geometricPrecision" transform="matrix(1,0,0,1,413,-1)" stroke-linecap="butt">
      <path fill="none" d="M132.42 545.1334 L141.42 545.1334 L136.92 555.1334 Z" fill-rule="evenodd" clip-path="url(#clipPath2)"/>
    </g>
    <g fill="lime" text-rendering="geometricPrecision" shape-rendering="geometricPrecision" transform="matrix(1,0,0,1,413,-1)" stroke="lime">
      <path d="M132.42 450.8 L141.42 450.8 L136.92 460.8 Z" fill-rule="evenodd" clip-path="url(#clipPath2)" stroke="none"/>
    </g>
    <g text-rendering="geometricPrecision" stroke-miterlimit="1.45" shape-rendering="geometricPrecision" transform="matrix(1,0,0,1,413,-1)" stroke-linecap="butt">
      <path fill="none" d="M132.42 450.8 L141.42 450.8 L136.92 460.8 Z" fill-rule="evenodd" clip-path="url(#clipPath2)"/>
    </g>
    <g fill="lime" text-rendering="geometricPrecision" shape-rendering="geometricPrecision" transform="matrix(1,0,0,1,413,-1)" stroke="lime">
      <path d="M132.42 473.3 L141.42 473.3 L136.92 483.3 Z" fill-rule="evenodd" clip-path="url(#clipPath2)" stroke="none"/>
    </g>
    <g text-rendering="geometricPrecision" stroke-miterlimit="1.45" shape-rendering="geometricPrecision" transform="matrix(1,0,0,1,413,-1)" stroke-linecap="butt">
      <path fill="none" d="M132.42 473.3 L141.42 473.3 L136.92 483.3 Z" fill-rule="evenodd" clip-path="url(#clipPath2)"/>
    </g>
    <g fill="lime" text-rendering="geometricPrecision" shape-rendering="geometricPrecision" transform="matrix(1,0,0,1,413,-1)" stroke="lime">
      <path d="M132.42 379.8 L141.42 379.8 L136.92 389.8 Z" fill-rule="evenodd" clip-path="url(#clipPath2)" stroke="none"/>
    </g>
    <g text-rendering="geometricPrecision" stroke-miterlimit="1.45" shape-rendering="geometricPrecision" transform="matrix(1,0,0,1,413,-1)" stroke-linecap="butt">
      <path fill="none" d="M132.42 379.8 L141.42 379.8 L136.92 389.8 Z" fill-rule="evenodd" clip-path="url(#clipPath2)"/>
    </g>
    <g fill="lime" text-rendering="geometricPrecision" shape-rendering="geometricPrecision" transform="matrix(1,0,0,1,413,-1)" stroke="lime">
      <path d="M132.42 404.3 L141.42 404.3 L136.92 414.3 Z" fill-rule="evenodd" clip-path="url(#clipPath2)" stroke="none"/>
    </g>
    <g text-rendering="geometricPrecision" stroke-miterlimit="1.45" shape-rendering="geometricPrecision" transform="matrix(1,0,0,1,413,-1)" stroke-linecap="butt">
      <path fill="none" d="M132.42 404.3 L141.42 404.3 L136.92 414.3 Z" fill-rule="evenodd" clip-path="url(#clipPath2)"/>
    </g>
    <g fill="lime" text-rendering="geometricPrecision" shape-rendering="geometricPrecision" transform="matrix(1,0,0,1,413,-1)" stroke="lime">
      <path d="M132.42 264.9 L141.42 264.9 L136.92 274.9 Z" fill-rule="evenodd" clip-path="url(#clipPath2)" stroke="none"/>
    </g>
    <g text-rendering="geometricPrecision" stroke-miterlimit="1.45" shape-rendering="geometricPrecision" transform="matrix(1,0,0,1,413,-1)" stroke-linecap="butt">
      <path fill="none" d="M132.42 264.9 L141.42 264.9 L136.92 274.9 Z" fill-rule="evenodd" clip-path="url(#clipPath2)"/>
    </g>
    <g fill="lime" text-rendering="geometricPrecision" shape-rendering="geometricPrecision" transform="matrix(1,0,0,1,413,-1)" stroke="lime">
      <path d="M132.42 289.8 L141.42 289.8 L136.92 299.8 Z" fill-rule="evenodd" clip-path="url(#clipPath2)" stroke="none"/>
    </g>
    <g text-rendering="geometricPrecision" stroke-miterlimit="1.45" shape-rendering="geometricPrecision" transform="matrix(1,0,0,1,413,-1)" stroke-linecap="butt">
      <path fill="none" d="M132.42 289.8 L141.42 289.8 L136.92 299.8 Z" fill-rule="evenodd" clip-path="url(#clipPath2)"/>
    </g>
    <g fill="lime" text-rendering="geometricPrecision" shape-rendering="geometricPrecision" transform="matrix(1,0,0,1,413,-1)" stroke="lime">
      <path d="M132.42 194.1 L141.42 194.1 L136.92 204.1 Z" fill-rule="evenodd" clip-path="url(#clipPath2)" stroke="none"/>
    </g>
    <g text-rendering="geometricPrecision" stroke-miterlimit="1.45" shape-rendering="geometricPrecision" transform="matrix(1,0,0,1,413,-1)" stroke-linecap="butt">
      <path fill="none" d="M132.42 194.1 L141.42 194.1 L136.92 204.1 Z" fill-rule="evenodd" clip-path="url(#clipPath2)"/>
    </g>
    <g fill="lime" text-rendering="geometricPrecision" shape-rendering="geometricPrecision" transform="matrix(1,0,0,1,413,-1)" stroke="lime">
      <path d="M132.42 221.4 L141.42 221.4 L136.92 231.4 Z" fill-rule="evenodd" clip-path="url(#clipPath2)" stroke="none"/>
    </g>
    <g text-rendering="geometricPrecision" stroke-miterlimit="1.45" shape-rendering="geometricPrecision" transform="matrix(1,0,0,1,413,-1)" stroke-linecap="butt">
      <path fill="none" d="M132.42 221.4 L141.42 221.4 L136.92 231.4 Z" fill-rule="evenodd" clip-path="url(#clipPath2)"/>
    </g>
    <g fill="rgb(153,204,255)" text-rendering="geometricPrecision" shape-rendering="geometricPrecision" transform="matrix(1,0,0,1,413,-1)" stroke="rgb(153,204,255)">
      <rect x="-257.43" width="120.35" height="100.8" y="204.7" clip-path="url(#clipPath2)" stroke="none"/>
    </g>
    <g text-rendering="geometricPrecision" stroke-miterlimit="1.45" shape-rendering="geometricPrecision" transform="matrix(1,0,0,1,413,-1)" stroke-linecap="butt">
      <rect fill="none" x="-257.43" width="120.35" height="100.8" y="204.7" clip-path="url(#clipPath2)"/>
      <text x="-218.9376" xml:space="preserve" y="259.8139" clip-path="url(#clipPath2)" font-family="sans-serif" stroke="none">p4_proc</text>
    </g>
    <g fill="rgb(153,204,255)" text-rendering="geometricPrecision" shape-rendering="geometricPrecision" transform="matrix(1,0,0,1,413,-1)" stroke="rgb(153,204,255)">
      <rect x="-257.43" width="120.35" height="40.4" y="123.9" clip-path="url(#clipPath2)" stroke="none"/>
    </g>
    <g text-rendering="geometricPrecision" stroke-miterlimit="1.45" shape-rendering="geometricPrecision" transform="matrix(1,0,0,1,413,-1)" stroke-linecap="butt">
      <rect fill="none" x="-257.43" width="120.35" height="40.4" y="123.9" clip-path="url(#clipPath2)"/>
      <text x="-252.6202" xml:space="preserve" y="148.8139" clip-path="url(#clipPath2)" font-family="sans-serif" stroke="none">vitisnetp4_igr_extern</text>
    </g>
    <g fill="rgb(153,204,255)" text-rendering="geometricPrecision" shape-rendering="geometricPrecision" transform="matrix(1,0,0,1,413,-1)" stroke="rgb(153,204,255)">
      <rect x="-257.43" width="120.35" height="40.4" y="164.3" clip-path="url(#clipPath2)" stroke="none"/>
    </g>
    <g text-rendering="geometricPrecision" stroke-miterlimit="1.45" shape-rendering="geometricPrecision" transform="matrix(1,0,0,1,413,-1)" stroke-linecap="butt">
      <rect fill="none" x="-257.43" width="120.35" height="40.4" y="164.3" clip-path="url(#clipPath2)"/>
      <text x="-222.6027" xml:space="preserve" y="189.2139" clip-path="url(#clipPath2)" font-family="sans-serif" stroke="none">vitisnetp4</text>
    </g>
    <g fill="red" text-rendering="geometricPrecision" shape-rendering="geometricPrecision" transform="matrix(1,0,0,1,413,-1)" stroke="red">
      <path d="M-121.68 209.16 L-112.68 209.16 L-117.18 219.16 Z" fill-rule="evenodd" clip-path="url(#clipPath2)" stroke="none"/>
    </g>
    <g text-rendering="geometricPrecision" stroke-miterlimit="1.45" shape-rendering="geometricPrecision" transform="matrix(1,0,0,1,413,-1)" stroke-linecap="butt">
      <path fill="none" d="M-121.68 209.16 L-112.68 209.16 L-117.18 219.16 Z" fill-rule="evenodd" clip-path="url(#clipPath2)"/>
    </g>
    <g fill="red" text-rendering="geometricPrecision" shape-rendering="geometricPrecision" transform="matrix(1,0,0,1,413,-1)" stroke="red">
      <path d="M-121.68 275.44 L-112.68 275.44 L-117.18 285.44 Z" fill-rule="evenodd" clip-path="url(#clipPath2)" stroke="none"/>
    </g>
    <g text-rendering="geometricPrecision" stroke-miterlimit="1.45" shape-rendering="geometricPrecision" transform="matrix(1,0,0,1,413,-1)" stroke-linecap="butt">
      <path fill="none" d="M-121.68 275.44 L-112.68 275.44 L-117.18 285.44 Z" fill-rule="evenodd" clip-path="url(#clipPath2)"/>
      <rect fill="none" x="-294.3" width="192.04" height="232.64" y="345.9" clip-path="url(#clipPath2)"/>
      <text x="-260.3073" y="363.9644" clip-path="url(#clipPath2)" font-family="sans-serif" stroke="none" font-weight="bold" xml:space="preserve">smartnic_app_egr_p4</text>
    </g>
    <g fill="rgb(153,204,255)" text-rendering="geometricPrecision" shape-rendering="geometricPrecision" transform="matrix(1,0,0,1,413,-1)" stroke="rgb(153,204,255)">
      <rect x="-257.43" width="120.35" height="100.8" y="381.9" clip-path="url(#clipPath2)" stroke="none"/>
    </g>
    <g text-rendering="geometricPrecision" stroke-miterlimit="1.45" shape-rendering="geometricPrecision" transform="matrix(1,0,0,1,413,-1)" stroke-linecap="butt">
      <rect fill="none" x="-257.43" width="120.35" height="100.8" y="381.9" clip-path="url(#clipPath2)"/>
      <text x="-218.9376" xml:space="preserve" y="437.0139" clip-path="url(#clipPath2)" font-family="sans-serif" stroke="none">p4_proc</text>
    </g>
    <g fill="rgb(153,204,255)" text-rendering="geometricPrecision" shape-rendering="geometricPrecision" transform="matrix(1,0,0,1,413,-1)" stroke="rgb(153,204,255)">
      <rect x="-257.43" width="120.35" height="40.4" y="523.1" clip-path="url(#clipPath2)" stroke="none"/>
    </g>
    <g text-rendering="geometricPrecision" stroke-miterlimit="1.45" shape-rendering="geometricPrecision" transform="matrix(1,0,0,1,413,-1)" stroke-linecap="butt">
      <rect fill="none" x="-257.43" width="120.35" height="40.4" y="523.1" clip-path="url(#clipPath2)"/>
      <text x="-254.6241" xml:space="preserve" y="548.0139" clip-path="url(#clipPath2)" font-family="sans-serif" stroke="none">vitisnetp4_egr_extern</text>
    </g>
    <g fill="rgb(153,204,255)" text-rendering="geometricPrecision" shape-rendering="geometricPrecision" transform="matrix(1,0,0,1,413,-1)" stroke="rgb(153,204,255)">
      <rect x="-257.43" width="120.35" height="40.4" y="482.7" clip-path="url(#clipPath2)" stroke="none"/>
    </g>
    <g text-rendering="geometricPrecision" stroke-miterlimit="1.45" shape-rendering="geometricPrecision" transform="matrix(1,0,0,1,413,-1)" stroke-linecap="butt">
      <rect fill="none" x="-257.43" width="120.35" height="40.4" y="482.7" clip-path="url(#clipPath2)"/>
      <text x="-222.6027" xml:space="preserve" y="507.6139" clip-path="url(#clipPath2)" font-family="sans-serif" stroke="none">vitisnetp4</text>
    </g>
    <g fill="lime" text-rendering="geometricPrecision" shape-rendering="geometricPrecision" transform="matrix(1,0,0,1,413,-1)" stroke="lime">
      <path d="M-294.3 29.1267 L-285.3 29.1267 L-289.8 39.1267 Z" fill-rule="evenodd" clip-path="url(#clipPath2)" stroke="none"/>
    </g>
    <g text-rendering="geometricPrecision" stroke-miterlimit="1.45" shape-rendering="geometricPrecision" transform="matrix(1,0,0,1,413,-1)" stroke-linecap="butt">
      <path fill="none" d="M-294.3 29.1267 L-285.3 29.1267 L-289.8 39.1267 Z" fill-rule="evenodd" clip-path="url(#clipPath2)"/>
      <text x="-274.1283" xml:space="preserve" y="38.8405" clip-path="url(#clipPath2)" font-family="sans-serif" stroke="none">=  Probe counter</text>
    </g>
    <g fill="red" text-rendering="geometricPrecision" shape-rendering="geometricPrecision" transform="matrix(1,0,0,1,413,-1)" stroke="red">
      <path d="M-294.3 49.16 L-285.3 49.16 L-289.8 59.16 Z" fill-rule="evenodd" clip-path="url(#clipPath2)" stroke="none"/>
    </g>
    <g text-rendering="geometricPrecision" stroke-miterlimit="1.45" shape-rendering="geometricPrecision" transform="matrix(1,0,0,1,413,-1)" stroke-linecap="butt">
      <path fill="none" d="M-294.3 49.16 L-285.3 49.16 L-289.8 59.16 Z" fill-rule="evenodd" clip-path="url(#clipPath2)"/>
      <text x="-272.7895" xml:space="preserve" y="58.8739" clip-path="url(#clipPath2)" font-family="sans-serif" stroke="none">=  Drop counter </text>
    </g>
    <g fill="red" text-rendering="geometricPrecision" shape-rendering="geometricPrecision" transform="matrix(1,0,0,1,413,-1)" stroke="red">
      <path d="M-278.8 403.92 L-269.8 403.92 L-274.3 413.92 Z" fill-rule="evenodd" clip-path="url(#clipPath2)" stroke="none"/>
    </g>
    <g text-rendering="geometricPrecision" stroke-miterlimit="1.45" shape-rendering="geometricPrecision" transform="matrix(1,0,0,1,413,-1)" stroke-linecap="butt">
      <path fill="none" d="M-278.8 403.92 L-269.8 403.92 L-274.3 413.92 Z" fill-rule="evenodd" clip-path="url(#clipPath2)"/>
    </g>
    <g fill="red" text-rendering="geometricPrecision" shape-rendering="geometricPrecision" transform="matrix(1,0,0,1,413,-1)" stroke="red">
      <path d="M-278.8 443.92 L-269.8 443.92 L-274.3 453.92 Z" fill-rule="evenodd" clip-path="url(#clipPath2)" stroke="none"/>
    </g>
    <g text-rendering="geometricPrecision" stroke-miterlimit="1.45" shape-rendering="geometricPrecision" transform="matrix(1,0,0,1,413,-1)" stroke-linecap="butt">
      <path fill="none" d="M-278.8 443.92 L-269.8 443.92 L-274.3 453.92 Z" fill-rule="evenodd" clip-path="url(#clipPath2)"/>
    </g>
    <g fill="lime" text-rendering="geometricPrecision" shape-rendering="geometricPrecision" transform="matrix(1,0,0,1,413,-1)" stroke="lime">
      <path d="M-47.65 254.5828 L-38.65 254.5828 L-43.15 264.5828 Z" fill-rule="evenodd" clip-path="url(#clipPath2)" stroke="none"/>
    </g>
    <g text-rendering="geometricPrecision" stroke-miterlimit="1.45" shape-rendering="geometricPrecision" transform="matrix(1,0,0,1,413,-1)" stroke-linecap="butt">
      <path fill="none" d="M-47.65 254.5828 L-38.65 254.5828 L-43.15 264.5828 Z" fill-rule="evenodd" clip-path="url(#clipPath2)"/>
    </g>
    <g fill="lime" text-rendering="geometricPrecision" shape-rendering="geometricPrecision" transform="matrix(1,0,0,1,413,-1)" stroke="lime">
      <path d="M-47.65 290.7929 L-38.65 290.7929 L-43.15 300.7929 Z" fill-rule="evenodd" clip-path="url(#clipPath2)" stroke="none"/>
    </g>
    <g text-rendering="geometricPrecision" stroke-miterlimit="1.45" shape-rendering="geometricPrecision" transform="matrix(1,0,0,1,413,-1)" stroke-linecap="butt">
      <path fill="none" d="M-47.65 290.7929 L-38.65 290.7929 L-43.15 300.7929 Z" fill-rule="evenodd" clip-path="url(#clipPath2)"/>
    </g>
    <g fill="lime" text-rendering="geometricPrecision" shape-rendering="geometricPrecision" transform="matrix(1,0,0,1,413,-1)" stroke="lime">
      <path d="M-39.54 373.1657 L-30.54 373.1657 L-35.04 383.1657 Z" fill-rule="evenodd" clip-path="url(#clipPath2)" stroke="none"/>
    </g>
    <g text-rendering="geometricPrecision" stroke-miterlimit="1.45" shape-rendering="geometricPrecision" transform="matrix(1,0,0,1,413,-1)" stroke-linecap="butt">
      <path fill="none" d="M-39.54 373.1657 L-30.54 373.1657 L-35.04 383.1657 Z" fill-rule="evenodd" clip-path="url(#clipPath2)"/>
    </g>
    <g fill="lime" text-rendering="geometricPrecision" shape-rendering="geometricPrecision" transform="matrix(1,0,0,1,413,-1)" stroke="lime">
      <path d="M-39.54 409.3757 L-30.54 409.3757 L-35.04 419.3757 Z" fill-rule="evenodd" clip-path="url(#clipPath2)" stroke="none"/>
    </g>
    <g text-rendering="geometricPrecision" stroke-miterlimit="1.45" shape-rendering="geometricPrecision" transform="matrix(1,0,0,1,413,-1)" stroke-linecap="butt">
      <path fill="none" d="M-39.54 409.3757 L-30.54 409.3757 L-35.04 419.3757 Z" fill-rule="evenodd" clip-path="url(#clipPath2)"/>
    </g>
    <g fill="lime" text-rendering="geometricPrecision" shape-rendering="geometricPrecision" transform="matrix(1,0,0,1,413,-1)" stroke="lime">
      <path d="M9.7085 330.9972 L18.7085 330.9972 L14.2085 340.9972 Z" fill-rule="evenodd" clip-path="url(#clipPath2)" stroke="none"/>
    </g>
    <g text-rendering="geometricPrecision" stroke-miterlimit="1.45" shape-rendering="geometricPrecision" transform="matrix(1,0,0,1,413,-1)" stroke-linecap="butt">
      <path fill="none" d="M9.7085 330.9972 L18.7085 330.9972 L14.2085 340.9972 Z" fill-rule="evenodd" clip-path="url(#clipPath2)"/>
    </g>
    <g fill="lime" text-rendering="geometricPrecision" shape-rendering="geometricPrecision" transform="matrix(1,0,0,1,413,-1)" stroke="lime">
      <path d="M69.7919 330.9971 L78.7919 330.9971 L74.2919 340.9971 Z" fill-rule="evenodd" clip-path="url(#clipPath2)" stroke="none"/>
    </g>
    <g text-rendering="geometricPrecision" stroke-miterlimit="1.45" shape-rendering="geometricPrecision" transform="matrix(1,0,0,1,413,-1)" stroke-linecap="butt">
      <path fill="none" d="M69.7919 330.9971 L78.7919 330.9971 L74.2919 340.9971 Z" fill-rule="evenodd" clip-path="url(#clipPath2)"/>
      <path fill="none" d="M171.3923 458.8 L-47.9 458.8" clip-path="url(#clipPath2)"/>
      <path d="M-55.9 458.8 L-43.9 463.8 L-46.9 458.8 L-43.9 453.8 Z" clip-path="url(#clipPath2)" stroke="none"/>
      <path fill="none" d="M171.3923 482.8 L-47.9 482.8" clip-path="url(#clipPath2)"/>
      <path d="M-55.9 482.8 L-43.9 487.8 L-46.9 482.8 L-43.9 477.8 Z" clip-path="url(#clipPath2)" stroke="none"/>
      <path fill="none" d="M-55.9 203.3 L163.3923 203.3" clip-path="url(#clipPath2)"/>
      <path d="M171.3923 203.3 L159.3923 198.3 L162.3923 203.3 L159.3923 208.3 Z" clip-path="url(#clipPath2)" stroke="none"/>
      <path fill="none" d="M-55.9 230.05 L163.3923 230.05" clip-path="url(#clipPath2)"/>
      <path d="M171.3923 230.05 L159.3923 225.05 L162.3923 230.05 L159.3923 235.05 Z" clip-path="url(#clipPath2)" stroke="none"/>
      <path fill="none" d="M-55.9 301.05 L-28.4347 301.05" clip-path="url(#clipPath2)"/>
      <path d="M-20.4347 301.05 L-32.4347 296.05 L-29.4347 301.05 L-32.4347 306.05 Z" clip-path="url(#clipPath2)" stroke="none"/>
      <path fill="none" d="M-55.9 265.55 L-28.4347 265.55" clip-path="url(#clipPath2)"/>
      <path d="M-20.4347 265.55 L-32.4347 260.55 L-29.4347 265.55 L-32.4347 270.55 Z" clip-path="url(#clipPath2)" stroke="none"/>
      <path fill="none" d="M108.8306 275.05 L163.3894 275.05" clip-path="url(#clipPath2)"/>
      <path d="M171.3894 275.05 L159.3894 270.05 L162.3894 275.05 L159.3894 280.05 Z" clip-path="url(#clipPath2)" stroke="none"/>
      <path fill="none" d="M108.8306 299.05 L163.3894 299.05" clip-path="url(#clipPath2)"/>
      <path d="M171.3894 299.05 L159.3894 294.05 L162.3894 299.05 L159.3894 304.05 Z" clip-path="url(#clipPath2)" stroke="none"/>
      <path fill="none" d="M171.3894 413.05 L116.8306 413.05" clip-path="url(#clipPath2)"/>
      <path d="M108.8306 413.05 L120.8306 418.05 L117.8306 413.05 L120.8306 408.05 Z" clip-path="url(#clipPath2)" stroke="none"/>
      <path fill="none" d="M171.3894 389.05 L116.8306 389.05" clip-path="url(#clipPath2)"/>
      <path d="M108.8306 389.05 L120.8306 394.05 L117.8306 389.05 L120.8306 384.05 Z" clip-path="url(#clipPath2)" stroke="none"/>
      <path fill="none" d="M14.3532 321.8 L14.3532 354.2604" clip-path="url(#clipPath2)"/>
      <path d="M14.3532 362.2604 L19.3532 350.2604 L14.3532 353.2604 L9.3532 350.2604 Z" clip-path="url(#clipPath2)" stroke="none"/>
      <path fill="none" d="M74.0468 321.8 L74.0468 354.2604" clip-path="url(#clipPath2)"/>
      <path d="M74.0468 362.2604 L79.0468 350.2604 L74.0468 353.2604 L69.0468 350.2604 Z" clip-path="url(#clipPath2)" stroke="none"/>
      <path fill="none" d="M-20.4347 383.05 L-47.9 383.05" clip-path="url(#clipPath2)"/>
      <path d="M-55.9 383.05 L-43.9 388.05 L-46.9 383.05 L-43.9 378.05 Z" clip-path="url(#clipPath2)" stroke="none"/>
      <path fill="none" d="M-20.4347 418.55 L-47.9 418.55" clip-path="url(#clipPath2)"/>
      <path d="M-55.9 418.55 L-43.9 423.55 L-46.9 418.55 L-43.9 413.55 Z" clip-path="url(#clipPath2)" stroke="none"/>
      <path fill="none" d="M-334.1 227.8 L-265.4279 227.8" clip-path="url(#clipPath2)"/>
      <path d="M-257.4279 227.8 L-269.4279 222.8 L-266.4279 227.8 L-269.4279 232.8 Z" clip-path="url(#clipPath2)" stroke="none"/>
      <path fill="none" d="M-334.1 268.8 L-265.4448 268.8" clip-path="url(#clipPath2)"/>
      <path d="M-257.4448 268.8 L-269.4448 263.8 L-266.4448 268.8 L-269.4448 273.8 Z" clip-path="url(#clipPath2)" stroke="none"/>
      <path fill="none" d="M-137.0412 285.3 L-93.9499 285.3" clip-path="url(#clipPath2)"/>
      <path d="M-85.9499 285.3 L-97.9499 280.3 L-94.9499 285.3 L-97.9499 290.3 Z" clip-path="url(#clipPath2)" stroke="none"/>
      <path fill="none" d="M-137.0573 218.3 L-93.95 218.3" clip-path="url(#clipPath2)"/>
      <path d="M-85.95 218.3 L-97.95 213.3 L-94.95 218.3 L-97.95 223.3 Z" clip-path="url(#clipPath2)" stroke="none"/>
      <path fill="none" d="M-137.0588 135.46 L163.42 135.46" clip-path="url(#clipPath2)"/>
      <path d="M171.42 135.46 L159.42 130.46 L162.42 135.46 L159.42 140.46 Z" clip-path="url(#clipPath2)" stroke="none"/>
      <path fill="none" d="M-129.0588 156.3 L171.42 156.3" clip-path="url(#clipPath2)"/>
      <path d="M-137.0588 156.3 L-125.0588 161.3 L-128.0588 156.3 L-125.0588 151.3 Z" clip-path="url(#clipPath2)" stroke="none"/>
      <path fill="none" d="M-85.95 398.8 L-129.0666 398.8" clip-path="url(#clipPath2)"/>
      <path d="M-137.0666 398.8 L-125.0666 403.8 L-128.0666 398.8 L-125.0666 393.8 Z" clip-path="url(#clipPath2)" stroke="none"/>
      <path fill="none" d="M-85.95 465.8 L-129.0666 465.8" clip-path="url(#clipPath2)"/>
      <path d="M-137.0666 465.8 L-125.0666 470.8 L-128.0666 465.8 L-125.0666 460.8 Z" clip-path="url(#clipPath2)" stroke="none"/>
      <path fill="none" d="M-257.4541 414.3 L-326.1 414.3" clip-path="url(#clipPath2)"/>
      <path d="M-334.1 414.3 L-322.1 419.3 L-325.1 414.3 L-322.1 409.3 Z" clip-path="url(#clipPath2)" stroke="none"/>
      <path fill="none" d="M-257.4416 455.3 L-326.1 455.3" clip-path="url(#clipPath2)"/>
      <path d="M-334.1 455.3 L-322.1 460.3 L-325.1 455.3 L-322.1 450.3 Z" clip-path="url(#clipPath2)" stroke="none"/>
      <path fill="none" d="M-137.0752 533.6501 L163.3823 533.3091" clip-path="url(#clipPath2)"/>
      <path d="M171.3823 533.3 L159.3767 528.3137 L162.3823 533.3103 L159.388 538.3137 Z" clip-path="url(#clipPath2)" stroke="none"/>
      <path fill="none" d="M-129.0647 555.8 L171.42 555.8" clip-path="url(#clipPath2)"/>
      <path d="M-137.0647 555.8 L-125.0647 560.8 L-128.0647 555.8 L-125.0647 550.8 Z" clip-path="url(#clipPath2)" stroke="none"/>
    </g>
  </g>
</svg>
