<?xml version="1.0" encoding="UTF-8"?><svg xmlns="http://www.w3.org/2000/svg" xmlns:xlink="http://www.w3.org/1999/xlink" fill-opacity="1" color-rendering="auto" color-interpolation="auto" text-rendering="auto" stroke="black" stroke-linecap="square" width="612" stroke-miterlimit="10" shape-rendering="auto" stroke-opacity="1" fill="black" stroke-dasharray="none" font-weight="normal" stroke-width="1" height="593" font-family="'Dialog'" font-style="normal" stroke-linejoin="miter" font-size="12px" stroke-dashoffset="0" image-rendering="auto">
  <!--Generated by ySVG 2.6-->
  <defs id="genericDefs"/>
  <g>
    <defs id="defs1">
      <clipPath clipPathUnits="userSpaceOnUse" id="clipPath1">
        <path d="M0 0 L612 0 L612 593 L0 593 L0 0 Z"/>
      </clipPath>
      <clipPath clipPathUnits="userSpaceOnUse" id="clipPath2">
        <path d="M-350 13 L262 13 L262 606 L-350 606 L-350 13 Z"/>
      </clipPath>
      <clipPath clipPathUnits="userSpaceOnUse" id="clipPath3">
        <path d="M-373.3892 298.1255 L-373.3892 -313.8745 L219.6108 -313.8745 L219.6108 298.1255 L-373.3892 298.1255 Z"/>
      </clipPath>
      <clipPath clipPathUnits="userSpaceOnUse" id="clipPath4">
        <path d="M-185.9434 298.1255 L-185.9434 -313.8745 L407.0566 -313.8745 L407.0566 298.1255 L-185.9434 298.1255 Z"/>
      </clipPath>
    </defs>
    <g fill="white" text-rendering="geometricPrecision" shape-rendering="geometricPrecision" transform="translate(350,-13)" stroke="white">
      <rect x="-350" width="612" height="593" y="13" clip-path="url(#clipPath2)" stroke="none"/>
    </g>
    <g fill="rgb(221,221,221)" text-rendering="geometricPrecision" shape-rendering="geometricPrecision" transform="matrix(1,0,0,1,350,-13)" stroke="rgb(221,221,221)">
      <rect x="-225.75" width="369" height="562" y="28.5" clip-path="url(#clipPath2)" stroke="none"/>
    </g>
    <g text-rendering="geometricPrecision" stroke-miterlimit="1.45" shape-rendering="geometricPrecision" transform="matrix(1,0,0,1,350,-13)" stroke-linecap="butt">
      <rect fill="none" x="-225.75" width="369" height="562" y="28.5" clip-path="url(#clipPath2)"/>
      <text x="-11.5137" xml:space="preserve" y="46.5645" clip-path="url(#clipPath2)" font-family="sans-serif" stroke="none">smartnic_app  p4 / datapath</text>
    </g>
    <g fill="rgb(153,204,255)" text-rendering="geometricPrecision" shape-rendering="geometricPrecision" transform="matrix(1,0,0,1,350,-13)" stroke="rgb(153,204,255)">
      <rect x="-194" width="89" height="140" y="149" clip-path="url(#clipPath2)" stroke="none"/>
    </g>
    <g text-rendering="geometricPrecision" stroke-miterlimit="1.45" shape-rendering="geometricPrecision" transform="matrix(1,0,0,1,350,-13)" stroke-linecap="butt">
      <rect fill="none" x="-194" width="89" height="140" y="149" clip-path="url(#clipPath2)"/>
      <text x="-178.1816" xml:space="preserve" y="223.7139" clip-path="url(#clipPath2)" font-family="sans-serif" stroke="none">Ingress P4</text>
    </g>
    <g fill="rgb(153,204,255)" text-rendering="geometricPrecision" shape-rendering="geometricPrecision" transform="matrix(1,0,0,1,350,-13)" stroke="rgb(153,204,255)">
      <rect x="-194" width="89" height="53" y="57" clip-path="url(#clipPath2)" stroke="none"/>
    </g>
    <g text-rendering="geometricPrecision" stroke-miterlimit="1.45" shape-rendering="geometricPrecision" transform="matrix(1,0,0,1,350,-13)" stroke-linecap="butt">
      <rect fill="none" x="-194" width="89" height="53" y="57" clip-path="url(#clipPath2)"/>
      <text x="-188.1836" xml:space="preserve" y="88.2139" clip-path="url(#clipPath2)" font-family="sans-serif" stroke="none">Ingress Extern</text>
      <text x="-310.8389" xml:space="preserve" y="199.7139" clip-path="url(#clipPath2)" font-family="sans-serif" stroke="none">P0</text>
      <text x="-310.8389" xml:space="preserve" y="240.7139" clip-path="url(#clipPath2)" font-family="sans-serif" stroke="none">P1</text>
    </g>
    <g fill="rgb(153,204,255)" text-rendering="geometricPrecision" shape-rendering="geometricPrecision" transform="matrix(1,0,0,1,350,-13)" stroke="rgb(153,204,255)">
      <rect x="-194" width="89" height="140" y="329.5" clip-path="url(#clipPath2)" stroke="none"/>
    </g>
    <g text-rendering="geometricPrecision" stroke-miterlimit="1.45" shape-rendering="geometricPrecision" transform="matrix(1,0,0,1,350,-13)" stroke-linecap="butt">
      <rect fill="none" x="-194" width="89" height="140" y="329.5" clip-path="url(#clipPath2)"/>
      <text x="-177.1797" xml:space="preserve" y="404.2139" clip-path="url(#clipPath2)" font-family="sans-serif" stroke="none">Egress P4</text>
      <text x="-310.8389" xml:space="preserve" y="386.2139" clip-path="url(#clipPath2)" font-family="sans-serif" stroke="none">P0</text>
      <text x="-310.8389" xml:space="preserve" y="427.2139" clip-path="url(#clipPath2)" font-family="sans-serif" stroke="none">P1</text>
    </g>
    <g fill="rgb(153,204,255)" text-rendering="geometricPrecision" shape-rendering="geometricPrecision" transform="matrix(1,0,0,1,350,-13)" stroke="rgb(153,204,255)">
      <rect x="-194" width="89" height="53" y="510" clip-path="url(#clipPath2)" stroke="none"/>
    </g>
    <g text-rendering="geometricPrecision" stroke-miterlimit="1.45" shape-rendering="geometricPrecision" transform="matrix(1,0,0,1,350,-13)" stroke-linecap="butt">
      <rect fill="none" x="-194" width="89" height="53" y="510" clip-path="url(#clipPath2)"/>
      <text x="-187.1816" xml:space="preserve" y="541.2139" clip-path="url(#clipPath2)" font-family="sans-serif" stroke="none">Egress Extern</text>
      <text x="204.4961" xml:space="preserve" y="175.2139" clip-path="url(#clipPath2)" font-family="sans-serif" stroke="none">PF0</text>
      <text x="204.4961" xml:space="preserve" y="202.7139" clip-path="url(#clipPath2)" font-family="sans-serif" stroke="none">PF1</text>
      <text x="190.1553" xml:space="preserve" y="247.7139" clip-path="url(#clipPath2)" font-family="sans-serif" stroke="none">PF0_VF0</text>
      <text x="190.1553" xml:space="preserve" y="270.2139" clip-path="url(#clipPath2)" font-family="sans-serif" stroke="none">PF1_VF0</text>
      <text x="190.1553" xml:space="preserve" y="78.2139" clip-path="url(#clipPath2)" font-family="sans-serif" stroke="none">PF0_VF1</text>
      <text x="190.1553" xml:space="preserve" y="533.2139" clip-path="url(#clipPath2)" font-family="sans-serif" stroke="none">PF1_VF1</text>
      <text x="204.4961" xml:space="preserve" y="453.7139" clip-path="url(#clipPath2)" font-family="sans-serif" stroke="none">PF1</text>
      <text x="204.4961" xml:space="preserve" y="431.7139" clip-path="url(#clipPath2)" font-family="sans-serif" stroke="none">PF0</text>
      <text x="190.1553" xml:space="preserve" y="361.2139" clip-path="url(#clipPath2)" font-family="sans-serif" stroke="none">PF0_VF0</text>
      <text x="190.1553" xml:space="preserve" y="384.7139" clip-path="url(#clipPath2)" font-family="sans-serif" stroke="none">PF1_VF0</text>
      <text x="190.1553" xml:space="preserve" y="95.2139" clip-path="url(#clipPath2)" font-family="sans-serif" stroke="none">PF0_VF1</text>
      <text x="190.1553" xml:space="preserve" y="550.2139" clip-path="url(#clipPath2)" font-family="sans-serif" stroke="none">PF1_VF1</text>
    </g>
    <g fill="rgb(153,204,255)" text-rendering="geometricPrecision" shape-rendering="geometricPrecision" transform="matrix(1,0,0,1,350,-13)" stroke="rgb(153,204,255)">
      <rect x="-75" width="30" height="140" y="329.5" clip-path="url(#clipPath2)" stroke="none"/>
    </g>
    <g text-rendering="geometricPrecision" stroke-miterlimit="1.45" shape-rendering="geometricPrecision" transform="matrix(1,0,0,1,350,-13)" stroke-linecap="butt">
      <rect fill="none" x="-75" width="30" height="140" y="329.5" clip-path="url(#clipPath2)"/>
    </g>
    <g font-size="10px" stroke-linecap="butt" transform="matrix(0,1,-1,0,298.1255,373.3892)" text-rendering="geometricPrecision" font-family="sans-serif" shape-rendering="geometricPrecision" stroke-miterlimit="1.45">
      <text x="2" xml:space="preserve" y="12.0537" clip-path="url(#clipPath3)" stroke="none">MUX</text>
    </g>
    <g fill="rgb(153,204,255)" text-rendering="geometricPrecision" shape-rendering="geometricPrecision" transform="matrix(1,0,0,1,350,-13)" stroke="rgb(153,204,255)">
      <rect x="-75" width="30" height="140" y="149" clip-path="url(#clipPath2)" stroke="none"/>
    </g>
    <g text-rendering="geometricPrecision" stroke-miterlimit="1.45" shape-rendering="geometricPrecision" transform="matrix(1,0,0,1,350,-13)" stroke-linecap="butt">
      <rect fill="none" x="-75" width="30" height="140" y="149" clip-path="url(#clipPath2)"/>
    </g>
    <g font-size="10px" stroke-linecap="butt" transform="matrix(0,1,-1,0,298.1255,185.9434)" text-rendering="geometricPrecision" font-family="sans-serif" shape-rendering="geometricPrecision" stroke-miterlimit="1.45">
      <text x="2" xml:space="preserve" y="12.0537" clip-path="url(#clipPath4)" stroke="none">DEMUX</text>
    </g>
    <g fill="rgb(153,204,255)" text-rendering="geometricPrecision" shape-rendering="geometricPrecision" transform="matrix(1,0,0,1,350,-13)" stroke="rgb(153,204,255)">
      <rect x="16" width="79" height="77" y="212" clip-path="url(#clipPath2)" stroke="none"/>
    </g>
    <g text-rendering="geometricPrecision" stroke-miterlimit="1.45" shape-rendering="geometricPrecision" transform="matrix(1,0,0,1,350,-13)" stroke-linecap="butt">
      <rect fill="none" x="16" width="79" height="77" y="212" clip-path="url(#clipPath2)"/>
      <text x="21.1523" xml:space="preserve" y="255.2139" clip-path="url(#clipPath2)" font-family="sans-serif" stroke="none">Ingress Core</text>
    </g>
    <g fill="rgb(153,204,255)" text-rendering="geometricPrecision" shape-rendering="geometricPrecision" transform="matrix(1,0,0,1,350,-13)" stroke="rgb(153,204,255)">
      <rect x="16" width="79" height="77" y="329.5" clip-path="url(#clipPath2)" stroke="none"/>
    </g>
    <g text-rendering="geometricPrecision" stroke-miterlimit="1.45" shape-rendering="geometricPrecision" transform="matrix(1,0,0,1,350,-13)" stroke-linecap="butt">
      <rect fill="none" x="16" width="79" height="77" y="329.5" clip-path="url(#clipPath2)"/>
      <text x="22.1543" xml:space="preserve" y="372.7139" clip-path="url(#clipPath2)" font-family="sans-serif" stroke="none">Egress Core</text>
      <path fill="none" d="M-149.5 140.9619 L-149.5 118" clip-path="url(#clipPath2)"/>
      <path d="M-149.5 148.9619 L-144.5 136.9619 L-149.5 139.9619 L-154.5 136.9619 Z" clip-path="url(#clipPath2)" stroke="none"/>
      <path d="M-149.5 110 L-154.5 122 L-149.5 119 L-144.5 122 Z" clip-path="url(#clipPath2)" stroke="none"/>
      <path fill="none" d="M-272 195 L-202.0381 195" clip-path="url(#clipPath2)"/>
      <path d="M-194.0381 195 L-206.0381 190 L-203.0381 195 L-206.0381 200 Z" clip-path="url(#clipPath2)" stroke="none"/>
      <path fill="none" d="M-272 236 L-202.0381 236" clip-path="url(#clipPath2)"/>
      <path d="M-194.0381 236 L-206.0381 231 L-203.0381 236 L-206.0381 241 Z" clip-path="url(#clipPath2)" stroke="none"/>
      <path fill="none" d="M-194.0381 381.5 L-264 381.5" clip-path="url(#clipPath2)"/>
      <path d="M-272 381.5 L-260 386.5 L-263 381.5 L-260 376.5 Z" clip-path="url(#clipPath2)" stroke="none"/>
      <path fill="none" d="M-194.0381 422.5 L-264 422.5" clip-path="url(#clipPath2)"/>
      <path d="M-272 422.5 L-260 427.5 L-263 422.5 L-260 417.5 Z" clip-path="url(#clipPath2)" stroke="none"/>
      <path fill="none" d="M-149.5 501.9604 L-149.5 477.5" clip-path="url(#clipPath2)"/>
      <path d="M-149.5 509.9604 L-144.5 497.9604 L-149.5 500.9604 L-154.5 497.9604 Z" clip-path="url(#clipPath2)" stroke="none"/>
      <path d="M-149.5 469.5 L-154.5 481.5 L-149.5 478.5 L-144.5 481.5 Z" clip-path="url(#clipPath2)" stroke="none"/>
      <path fill="none" d="M-105 75.5 L175.9647 75.5" clip-path="url(#clipPath2)"/>
      <path d="M183.9647 75.5 L171.9647 70.5 L174.9647 75.5 L171.9647 80.5 Z" clip-path="url(#clipPath2)" stroke="none"/>
      <path fill="none" d="M-105 525 L175.9647 525" clip-path="url(#clipPath2)"/>
      <path d="M183.9647 525 L171.9647 520 L174.9647 525 L171.9647 530 Z" clip-path="url(#clipPath2)" stroke="none"/>
      <path fill="none" d="M183.9647 92 L-97 92" clip-path="url(#clipPath2)"/>
      <path d="M-105 92 L-93 97 L-96 92 L-93 87 Z" clip-path="url(#clipPath2)" stroke="none"/>
      <path fill="none" d="M183.9647 549 L-97 549" clip-path="url(#clipPath2)"/>
      <path d="M-105 549 L-93 554 L-96 549 L-93 544 Z" clip-path="url(#clipPath2)" stroke="none"/>
      <path fill="none" d="M183.972 426 L-37 426" clip-path="url(#clipPath2)"/>
      <path d="M-45 426 L-33 431 L-36 426 L-33 421 Z" clip-path="url(#clipPath2)" stroke="none"/>
      <path fill="none" d="M183.972 450 L-37 450" clip-path="url(#clipPath2)"/>
      <path d="M-45 450 L-33 455 L-36 450 L-33 445 Z" clip-path="url(#clipPath2)" stroke="none"/>
      <path fill="none" d="M-75.0293 366 L-97 366" clip-path="url(#clipPath2)"/>
      <path d="M-105 366 L-93 371 L-96 366 L-93 361 Z" clip-path="url(#clipPath2)" stroke="none"/>
      <path fill="none" d="M-75.0293 433 L-97 433" clip-path="url(#clipPath2)"/>
      <path d="M-105 433 L-93 438 L-96 433 L-93 428 Z" clip-path="url(#clipPath2)" stroke="none"/>
      <path fill="none" d="M-105 252.5 L-83.0293 252.5" clip-path="url(#clipPath2)"/>
      <path d="M-75.0293 252.5 L-87.0293 247.5 L-84.0293 252.5 L-87.0293 257.5 Z" clip-path="url(#clipPath2)" stroke="none"/>
      <path fill="none" d="M-105 185.5 L-83.0293 185.5" clip-path="url(#clipPath2)"/>
      <path d="M-75.0293 185.5 L-87.0293 180.5 L-84.0293 185.5 L-87.0293 190.5 Z" clip-path="url(#clipPath2)" stroke="none"/>
      <path fill="none" d="M-45 170.5 L175.972 170.5" clip-path="url(#clipPath2)"/>
      <path d="M183.972 170.5 L171.972 165.5 L174.972 170.5 L171.972 175.5 Z" clip-path="url(#clipPath2)" stroke="none"/>
      <path fill="none" d="M-45 197.25 L175.972 197.25" clip-path="url(#clipPath2)"/>
      <path d="M183.972 197.25 L171.972 192.25 L174.972 197.25 L171.972 202.25 Z" clip-path="url(#clipPath2)" stroke="none"/>
      <path fill="none" d="M-45 268.25 L7.9702 268.25" clip-path="url(#clipPath2)"/>
      <path d="M15.9702 268.25 L3.9702 263.25 L6.9702 268.25 L3.9702 273.25 Z" clip-path="url(#clipPath2)" stroke="none"/>
      <path fill="none" d="M-45 232.75 L7.9702 232.75" clip-path="url(#clipPath2)"/>
      <path d="M15.9702 232.75 L3.9702 227.75 L6.9702 232.75 L3.9702 237.75 Z" clip-path="url(#clipPath2)" stroke="none"/>
      <path fill="none" d="M95 242.25 L175.9565 242.25" clip-path="url(#clipPath2)"/>
      <path d="M183.9565 242.25 L171.9565 237.25 L174.9565 242.25 L171.9565 247.25 Z" clip-path="url(#clipPath2)" stroke="none"/>
      <path fill="none" d="M95 266.25 L175.9565 266.25" clip-path="url(#clipPath2)"/>
      <path d="M183.9565 266.25 L171.9565 261.25 L174.9565 266.25 L171.9565 271.25 Z" clip-path="url(#clipPath2)" stroke="none"/>
      <path fill="none" d="M183.9565 380.25 L103 380.25" clip-path="url(#clipPath2)"/>
      <path d="M95 380.25 L107 385.25 L104 380.25 L107 375.25 Z" clip-path="url(#clipPath2)" stroke="none"/>
      <path fill="none" d="M183.9565 356.25 L103 356.25" clip-path="url(#clipPath2)"/>
      <path d="M95 356.25 L107 361.25 L104 356.25 L107 351.25 Z" clip-path="url(#clipPath2)" stroke="none"/>
      <path fill="none" d="M37.25 289 L37.25 321.4604" clip-path="url(#clipPath2)"/>
      <path d="M37.25 329.4604 L42.25 317.4604 L37.25 320.4604 L32.25 317.4604 Z" clip-path="url(#clipPath2)" stroke="none"/>
      <path fill="none" d="M73.75 289 L73.75 321.4604" clip-path="url(#clipPath2)"/>
      <path d="M73.75 329.4604 L78.75 317.4604 L73.75 320.4604 L68.75 317.4604 Z" clip-path="url(#clipPath2)" stroke="none"/>
      <path fill="none" d="M15.9702 350.25 L-37 350.25" clip-path="url(#clipPath2)"/>
      <path d="M-45 350.25 L-33 355.25 L-36 350.25 L-33 345.25 Z" clip-path="url(#clipPath2)" stroke="none"/>
      <path fill="none" d="M15.9702 385.75 L-37 385.75" clip-path="url(#clipPath2)"/>
      <path d="M-45 385.75 L-33 390.75 L-36 385.75 L-33 380.75 Z" clip-path="url(#clipPath2)" stroke="none"/>
    </g>
  </g>
</svg>
