<?xml version="1.0" encoding="UTF-8"?><svg xmlns="http://www.w3.org/2000/svg" xmlns:xlink="http://www.w3.org/1999/xlink" fill-opacity="1" color-rendering="auto" color-interpolation="auto" text-rendering="auto" stroke="black" stroke-linecap="square" width="1052" stroke-miterlimit="10" shape-rendering="auto" stroke-opacity="1" fill="black" stroke-dasharray="none" font-weight="normal" stroke-width="1" height="533" font-family="'Dialog'" font-style="normal" stroke-linejoin="miter" font-size="12px" stroke-dashoffset="0" image-rendering="auto">
  <!--Generated by ySVG 2.6-->
  <defs id="genericDefs"/>
  <g>
    <defs id="defs1">
      <clipPath clipPathUnits="userSpaceOnUse" id="clipPath1">
        <path d="M0 0 L1052 0 L1052 533 L0 533 L0 0 Z"/>
      </clipPath>
      <clipPath clipPathUnits="userSpaceOnUse" id="clipPath2">
        <path d="M-1062 -29 L-10 -29 L-10 504 L-1062 504 L-1062 -29 Z"/>
      </clipPath>
      <clipPath clipPathUnits="userSpaceOnUse" id="clipPath3">
        <path d="M-399.5169 240.4382 L-399.5169 -811.5618 L133.4831 -811.5618 L133.4831 240.4382 L-399.5169 240.4382 Z"/>
      </clipPath>
      <clipPath clipPathUnits="userSpaceOnUse" id="clipPath4">
        <path d="M-406.4627 289.7762 L-406.4627 -762.2239 L126.5373 -762.2239 L126.5373 289.7762 L-406.4627 289.7762 Z"/>
      </clipPath>
      <clipPath clipPathUnits="userSpaceOnUse" id="clipPath5">
        <path d="M-124.1392 781.3616 L-124.1392 -270.6384 L408.8608 -270.6384 L408.8608 781.3616 L-124.1392 781.3616 Z"/>
      </clipPath>
      <clipPath clipPathUnits="userSpaceOnUse" id="clipPath6">
        <path d="M-216.1774 781.3616 L-216.1774 -270.6384 L316.8226 -270.6384 L316.8226 781.3616 L-216.1774 781.3616 Z"/>
      </clipPath>
      <clipPath clipPathUnits="userSpaceOnUse" id="clipPath7">
        <path d="M-299.7493 781.3616 L-299.7493 -270.6384 L233.2507 -270.6384 L233.2507 781.3616 L-299.7493 781.3616 Z"/>
      </clipPath>
      <clipPath clipPathUnits="userSpaceOnUse" id="clipPath8">
        <path d="M-390.2669 781.3616 L-390.2669 -270.6384 L142.7331 -270.6384 L142.7331 781.3616 L-390.2669 781.3616 Z"/>
      </clipPath>
      <clipPath clipPathUnits="userSpaceOnUse" id="clipPath9">
        <path d="M-136.8174 940.9301 L-136.8174 -111.0699 L396.1826 -111.0699 L396.1826 940.9301 L-136.8174 940.9301 Z"/>
      </clipPath>
      <clipPath clipPathUnits="userSpaceOnUse" id="clipPath10">
        <path d="M-228.8557 940.9301 L-228.8557 -111.0699 L304.1443 -111.0699 L304.1443 940.9301 L-228.8557 940.9301 Z"/>
      </clipPath>
      <clipPath clipPathUnits="userSpaceOnUse" id="clipPath11">
        <path d="M-312.4275 940.9301 L-312.4275 -111.0699 L220.5725 -111.0699 L220.5725 940.9301 L-312.4275 940.9301 Z"/>
      </clipPath>
      <clipPath clipPathUnits="userSpaceOnUse" id="clipPath12">
        <path d="M-402.9452 940.9301 L-402.9452 -111.0699 L130.0548 -111.0699 L130.0548 940.9301 L-402.9452 940.9301 Z"/>
      </clipPath>
      <clipPath clipPathUnits="userSpaceOnUse" id="clipPath13">
        <path d="M-114.8892 240.4382 L-114.8892 -811.5618 L418.1108 -811.5618 L418.1108 240.4382 L-114.8892 240.4382 Z"/>
      </clipPath>
      <clipPath clipPathUnits="userSpaceOnUse" id="clipPath14">
        <path d="M-107.9434 289.7762 L-107.9434 -762.2239 L425.0566 -762.2239 L425.0566 289.7762 L-107.9434 289.7762 Z"/>
      </clipPath>
      <clipPath clipPathUnits="userSpaceOnUse" id="clipPath15">
        <path d="M-189.1412 240.4382 L-189.1412 -811.5618 L343.8588 -811.5618 L343.8588 240.4382 L-189.1412 240.4382 Z"/>
      </clipPath>
      <clipPath clipPathUnits="userSpaceOnUse" id="clipPath16">
        <path d="M-182.1954 289.7762 L-182.1954 -762.2239 L350.8046 -762.2239 L350.8046 289.7762 L-182.1954 289.7762 Z"/>
      </clipPath>
      <clipPath clipPathUnits="userSpaceOnUse" id="clipPath17">
        <path d="M-325.2649 240.4382 L-325.2649 -811.5618 L207.7351 -811.5618 L207.7351 240.4382 L-325.2649 240.4382 Z"/>
      </clipPath>
      <clipPath clipPathUnits="userSpaceOnUse" id="clipPath18">
        <path d="M-332.2107 289.7762 L-332.2107 -762.2239 L200.7893 -762.2239 L200.7893 289.7762 L-332.2107 289.7762 Z"/>
      </clipPath>
    </defs>
    <g fill="white" text-rendering="geometricPrecision" shape-rendering="geometricPrecision" transform="translate(1062,29)" stroke="white">
      <rect x="-1062" width="1052" height="533" y="-29" clip-path="url(#clipPath2)" stroke="none"/>
    </g>
    <g fill="rgb(224,224,224)" text-rendering="geometricPrecision" shape-rendering="geometricPrecision" transform="matrix(1,0,0,1,1062,29)" stroke="rgb(224,224,224)">
      <rect x="-959.47" width="870.1" height="502" y="-13.5648" clip-path="url(#clipPath2)" stroke="none"/>
    </g>
    <g text-rendering="geometricPrecision" stroke-miterlimit="1.45" shape-rendering="geometricPrecision" transform="matrix(1,0,0,1,1062,29)" stroke-linecap="butt">
      <rect fill="none" x="-959.47" width="870.1" height="502" y="-13.5648" clip-path="url(#clipPath2)"/>
      <text x="-140.7098" xml:space="preserve" y="4.4996" clip-path="url(#clipPath2)" font-family="sans-serif" stroke="none">smartnic</text>
    </g>
    <g fill="rgb(243,243,243)" text-rendering="geometricPrecision" shape-rendering="geometricPrecision" transform="matrix(1,0,0,1,1062,29)" stroke="rgb(243,243,243)">
      <rect x="-618.0201" width="372.88" height="432.9809" y="28.8776" clip-path="url(#clipPath2)" stroke="none"/>
    </g>
    <g text-rendering="geometricPrecision" stroke-miterlimit="1.45" shape-rendering="geometricPrecision" transform="matrix(1,0,0,1,1062,29)" stroke-linecap="butt">
      <rect fill="none" x="-618.0201" width="372.88" height="432.9809" y="28.8776" clip-path="url(#clipPath2)"/>
      <text x="-323.1753" xml:space="preserve" y="46.942" clip-path="url(#clipPath2)" font-family="sans-serif" stroke="none">smartnic_app</text>
    </g>
    <g fill="rgb(243,243,243)" text-rendering="geometricPrecision" shape-rendering="geometricPrecision" transform="matrix(1,0,0,1,1062,29)" stroke="rgb(243,243,243)">
      <rect x="-876.3" width="170.604" height="186.9507" y="274.9078" clip-path="url(#clipPath2)" stroke="none"/>
    </g>
    <g text-rendering="geometricPrecision" stroke-miterlimit="1.45" shape-rendering="geometricPrecision" transform="matrix(1,0,0,1,1062,29)" stroke-linecap="butt">
      <rect fill="none" x="-876.3" width="170.604" height="186.9507" y="274.9078" clip-path="url(#clipPath2)"/>
      <text x="-799.7273" xml:space="preserve" y="453.2217" clip-path="url(#clipPath2)" font-family="sans-serif" stroke="none">smartnic_demux</text>
    </g>
    <g fill="rgb(243,243,243)" text-rendering="geometricPrecision" shape-rendering="geometricPrecision" transform="matrix(1,0,0,1,1062,29)" stroke="rgb(243,243,243)">
      <rect x="-876.3" width="170.604" height="186.9507" y="28.8776" clip-path="url(#clipPath2)" stroke="none"/>
    </g>
    <g text-rendering="geometricPrecision" stroke-miterlimit="1.45" shape-rendering="geometricPrecision" transform="matrix(1,0,0,1,1062,29)" stroke-linecap="butt">
      <rect fill="none" x="-876.3" width="170.604" height="186.9507" y="28.8776" clip-path="url(#clipPath2)"/>
      <text x="-786.3796" xml:space="preserve" y="46.942" clip-path="url(#clipPath2)" font-family="sans-serif" stroke="none">smartnic_mux</text>
    </g>
    <g fill="rgb(153,204,255)" text-rendering="geometricPrecision" shape-rendering="geometricPrecision" transform="matrix(1,0,0,1,1062,29)" stroke="rgb(153,204,255)">
      <rect x="-847.1873" width="35" height="60" y="360.5736" clip-path="url(#clipPath2)" stroke="none"/>
    </g>
    <g text-rendering="geometricPrecision" stroke-miterlimit="1.45" shape-rendering="geometricPrecision" transform="matrix(1,0,0,1,1062,29)" stroke-linecap="butt">
      <rect fill="none" x="-847.1873" width="35" height="60" y="360.5736" clip-path="url(#clipPath2)"/>
    </g>
    <g font-size="10px" stroke-linecap="butt" transform="matrix(0,1,-1,0,240.4381,399.5169)" text-rendering="geometricPrecision" font-family="sans-serif" shape-rendering="geometricPrecision" stroke-miterlimit="1.45">
      <text x="2" xml:space="preserve" y="12.0537" clip-path="url(#clipPath3)" stroke="none">DEMUX</text>
    </g>
    <g fill="rgb(153,204,255)" text-rendering="geometricPrecision" shape-rendering="geometricPrecision" transform="matrix(1,0,0,1,1062,29)" stroke="rgb(153,204,255)">
      <rect x="-797.8493" width="35" height="60" y="360.5736" clip-path="url(#clipPath2)" stroke="none"/>
    </g>
    <g text-rendering="geometricPrecision" stroke-miterlimit="1.45" shape-rendering="geometricPrecision" transform="matrix(1,0,0,1,1062,29)" stroke-linecap="butt">
      <rect fill="none" x="-797.8493" width="35" height="60" y="360.5736" clip-path="url(#clipPath2)"/>
    </g>
    <g font-size="10px" stroke-linecap="butt" transform="matrix(0,1,-1,0,289.7761,406.4627)" text-rendering="geometricPrecision" font-family="sans-serif" shape-rendering="geometricPrecision" stroke-miterlimit="1.45">
      <text x="2" xml:space="preserve" y="12.0537" clip-path="url(#clipPath4)" stroke="none">MUX</text>
    </g>
    <g text-rendering="geometricPrecision" stroke-miterlimit="1.45" shape-rendering="geometricPrecision" font-family="sans-serif" transform="matrix(1,0,0,1,1062,29)" stroke-linecap="butt">
      <text x="-1035.1599" xml:space="preserve" y="305.2981" clip-path="url(#clipPath2)" stroke="none">CMAC0</text>
      <text x="-939.7044" xml:space="preserve" y="335.971" clip-path="url(#clipPath2)" stroke="none">PF0_VF2</text>
    </g>
    <g fill="rgb(153,204,255)" text-rendering="geometricPrecision" shape-rendering="geometricPrecision" transform="matrix(1,0,0,1,1062,29)" stroke="rgb(153,204,255)">
      <rect x="-306.2639" width="35" height="78.5" y="69" clip-path="url(#clipPath2)" stroke="none"/>
    </g>
    <g text-rendering="geometricPrecision" stroke-miterlimit="1.45" shape-rendering="geometricPrecision" transform="matrix(1,0,0,1,1062,29)" stroke-linecap="butt">
      <rect fill="none" x="-306.2639" width="35" height="78.5" y="69" clip-path="url(#clipPath2)"/>
    </g>
    <g font-size="10px" stroke-linecap="butt" transform="matrix(0,1,-1,0,781.3616,124.1392)" text-rendering="geometricPrecision" font-family="sans-serif" shape-rendering="geometricPrecision" stroke-miterlimit="1.45">
      <text x="2" xml:space="preserve" y="12.0537" clip-path="url(#clipPath5)" stroke="none">MUX</text>
    </g>
    <g fill="rgb(153,204,255)" text-rendering="geometricPrecision" shape-rendering="geometricPrecision" transform="matrix(1,0,0,1,1062,29)" stroke="rgb(153,204,255)">
      <rect x="-306.2639" width="35" height="78.5" y="161.0382" clip-path="url(#clipPath2)" stroke="none"/>
    </g>
    <g text-rendering="geometricPrecision" stroke-miterlimit="1.45" shape-rendering="geometricPrecision" transform="matrix(1,0,0,1,1062,29)" stroke-linecap="butt">
      <rect fill="none" x="-306.2639" width="35" height="78.5" y="161.0382" clip-path="url(#clipPath2)"/>
    </g>
    <g font-size="10px" stroke-linecap="butt" transform="matrix(0,1,-1,0,781.3616,216.1774)" text-rendering="geometricPrecision" font-family="sans-serif" shape-rendering="geometricPrecision" stroke-miterlimit="1.45">
      <text x="2" xml:space="preserve" y="12.0537" clip-path="url(#clipPath6)" stroke="none">MUX</text>
    </g>
    <g text-rendering="geometricPrecision" stroke-miterlimit="1.45" shape-rendering="geometricPrecision" font-family="sans-serif" transform="matrix(1,0,0,1,1062,29)" stroke-linecap="butt">
      <text x="-758.2844" xml:space="preserve" y="252.5354" clip-path="url(#clipPath2)" stroke="none">BYPASS</text>
    </g>
    <g fill="rgb(153,204,255)" text-rendering="geometricPrecision" shape-rendering="geometricPrecision" transform="matrix(1,0,0,1,1062,29)" stroke="rgb(153,204,255)">
      <rect x="-306.2639" width="35" height="78.5" y="251.5559" clip-path="url(#clipPath2)" stroke="none"/>
    </g>
    <g text-rendering="geometricPrecision" stroke-miterlimit="1.45" shape-rendering="geometricPrecision" transform="matrix(1,0,0,1,1062,29)" stroke-linecap="butt">
      <rect fill="none" x="-306.2639" width="35" height="78.5" y="251.5559" clip-path="url(#clipPath2)"/>
    </g>
    <g font-size="10px" stroke-linecap="butt" transform="matrix(0,1,-1,0,781.3616,299.7493)" text-rendering="geometricPrecision" font-family="sans-serif" shape-rendering="geometricPrecision" stroke-miterlimit="1.45">
      <text x="2" xml:space="preserve" y="12.0537" clip-path="url(#clipPath7)" stroke="none">DEMUX</text>
    </g>
    <g fill="rgb(153,204,255)" text-rendering="geometricPrecision" shape-rendering="geometricPrecision" transform="matrix(1,0,0,1,1062,29)" stroke="rgb(153,204,255)">
      <rect x="-306.2639" width="35" height="78.5" y="342.0736" clip-path="url(#clipPath2)" stroke="none"/>
    </g>
    <g text-rendering="geometricPrecision" stroke-miterlimit="1.45" shape-rendering="geometricPrecision" transform="matrix(1,0,0,1,1062,29)" stroke-linecap="butt">
      <rect fill="none" x="-306.2639" width="35" height="78.5" y="342.0736" clip-path="url(#clipPath2)"/>
    </g>
    <g font-size="10px" stroke-linecap="butt" transform="matrix(0,1,-1,0,781.3616,390.2669)" text-rendering="geometricPrecision" font-family="sans-serif" shape-rendering="geometricPrecision" stroke-miterlimit="1.45">
      <text x="2" xml:space="preserve" y="12.0537" clip-path="url(#clipPath8)" stroke="none">DEMUX</text>
    </g>
    <g fill="rgb(153,204,255)" text-rendering="geometricPrecision" shape-rendering="geometricPrecision" transform="matrix(1,0,0,1,1062,29)" stroke="rgb(153,204,255)">
      <rect x="-594.3066" width="191.5" height="351.5736" y="69" clip-path="url(#clipPath2)" stroke="none"/>
    </g>
    <g text-rendering="geometricPrecision" stroke-miterlimit="1.45" shape-rendering="geometricPrecision" transform="matrix(1,0,0,1,1062,29)" stroke-linecap="butt">
      <rect fill="none" x="-594.3066" width="191.5" height="351.5736" y="69" clip-path="url(#clipPath2)"/>
      <text x="-536.2411" xml:space="preserve" y="242.1501" clip-path="url(#clipPath2)" font-family="sans-serif" stroke="none">smartnic_app </text>
      <text x="-533.5869" xml:space="preserve" y="256.8512" clip-path="url(#clipPath2)" font-family="sans-serif" stroke="none">p4 / datapath</text>
    </g>
    <g fill="rgb(153,204,255)" text-rendering="geometricPrecision" shape-rendering="geometricPrecision" transform="matrix(1,0,0,1,1062,29)" stroke="rgb(153,204,255)">
      <rect x="-146.6954" width="35" height="50" y="95.9283" clip-path="url(#clipPath2)" stroke="none"/>
    </g>
    <g text-rendering="geometricPrecision" stroke-miterlimit="1.45" shape-rendering="geometricPrecision" transform="matrix(1,0,0,1,1062,29)" stroke-linecap="butt">
      <rect fill="none" x="-146.6954" width="35" height="50" y="95.9283" clip-path="url(#clipPath2)"/>
    </g>
    <g font-size="10px" stroke-linecap="butt" transform="matrix(0,1,-1,0,940.9301,136.8174)" text-rendering="geometricPrecision" font-family="sans-serif" shape-rendering="geometricPrecision" stroke-miterlimit="1.45">
      <text x="2" xml:space="preserve" y="12.0537" clip-path="url(#clipPath9)" stroke="none">MUX</text>
    </g>
    <g fill="rgb(153,204,255)" text-rendering="geometricPrecision" shape-rendering="geometricPrecision" transform="matrix(1,0,0,1,1062,29)" stroke="rgb(153,204,255)">
      <rect x="-146.6954" width="35" height="50" y="187.9665" clip-path="url(#clipPath2)" stroke="none"/>
    </g>
    <g text-rendering="geometricPrecision" stroke-miterlimit="1.45" shape-rendering="geometricPrecision" transform="matrix(1,0,0,1,1062,29)" stroke-linecap="butt">
      <rect fill="none" x="-146.6954" width="35" height="50" y="187.9665" clip-path="url(#clipPath2)"/>
    </g>
    <g font-size="10px" stroke-linecap="butt" transform="matrix(0,1,-1,0,940.9301,228.8557)" text-rendering="geometricPrecision" font-family="sans-serif" shape-rendering="geometricPrecision" stroke-miterlimit="1.45">
      <text x="2" xml:space="preserve" y="12.0537" clip-path="url(#clipPath10)" stroke="none">MUX</text>
    </g>
    <g fill="rgb(153,204,255)" text-rendering="geometricPrecision" shape-rendering="geometricPrecision" transform="matrix(1,0,0,1,1062,29)" stroke="rgb(153,204,255)">
      <rect x="-146.6954" width="35" height="50" y="278.4842" clip-path="url(#clipPath2)" stroke="none"/>
    </g>
    <g text-rendering="geometricPrecision" stroke-miterlimit="1.45" shape-rendering="geometricPrecision" transform="matrix(1,0,0,1,1062,29)" stroke-linecap="butt">
      <rect fill="none" x="-146.6954" width="35" height="50" y="278.4842" clip-path="url(#clipPath2)"/>
    </g>
    <g font-size="10px" stroke-linecap="butt" transform="matrix(0,1,-1,0,940.9301,312.4275)" text-rendering="geometricPrecision" font-family="sans-serif" shape-rendering="geometricPrecision" stroke-miterlimit="1.45">
      <text x="2" xml:space="preserve" y="12.0537" clip-path="url(#clipPath11)" stroke="none">DEMUX</text>
    </g>
    <g fill="rgb(153,204,255)" text-rendering="geometricPrecision" shape-rendering="geometricPrecision" transform="matrix(1,0,0,1,1062,29)" stroke="rgb(153,204,255)">
      <rect x="-146.6954" width="35" height="50" y="369.0018" clip-path="url(#clipPath2)" stroke="none"/>
    </g>
    <g text-rendering="geometricPrecision" stroke-miterlimit="1.45" shape-rendering="geometricPrecision" transform="matrix(1,0,0,1,1062,29)" stroke-linecap="butt">
      <rect fill="none" x="-146.6954" width="35" height="50" y="369.0018" clip-path="url(#clipPath2)"/>
    </g>
    <g font-size="10px" stroke-linecap="butt" transform="matrix(0,1,-1,0,940.9301,402.9452)" text-rendering="geometricPrecision" font-family="sans-serif" shape-rendering="geometricPrecision" stroke-miterlimit="1.45">
      <text x="2" xml:space="preserve" y="12.0537" clip-path="url(#clipPath12)" stroke="none">DEMUX</text>
    </g>
    <g text-rendering="geometricPrecision" stroke-miterlimit="1.45" shape-rendering="geometricPrecision" font-family="sans-serif" transform="matrix(1,0,0,1,1062,29)" stroke-linecap="butt">
      <text x="-235.1115" xml:space="preserve" y="409.5374" clip-path="url(#clipPath2)" stroke="none">PF1_VF2</text>
      <text x="-235.1115" xml:space="preserve" y="318.4179" clip-path="url(#clipPath2)" stroke="none">PF0_VF2</text>
      <text x="-235.1115" xml:space="preserve" y="226.1035" clip-path="url(#clipPath2)" stroke="none">PF1_VF2</text>
      <text x="-235.1115" xml:space="preserve" y="135.5886" clip-path="url(#clipPath2)" stroke="none">PF0_VF2</text>
      <text x="-65.2788" xml:space="preserve" y="398.7157" clip-path="url(#clipPath2)" stroke="none">H2C[1]</text>
      <text x="-65.2788" xml:space="preserve" y="308.198" clip-path="url(#clipPath2)" stroke="none">H2C[0]</text>
      <text x="-65.2788" xml:space="preserve" y="217.6804" clip-path="url(#clipPath2)" stroke="none">C2H[1]</text>
      <text x="-65.2788" xml:space="preserve" y="125.6421" clip-path="url(#clipPath2)" stroke="none">C2H[0]</text>
    </g>
    <g fill="rgb(153,204,255)" text-rendering="geometricPrecision" shape-rendering="geometricPrecision" transform="matrix(1,0,0,1,1062,29)" stroke="rgb(153,204,255)">
      <rect x="-847.1873" width="35" height="60" y="69" clip-path="url(#clipPath2)" stroke="none"/>
    </g>
    <g text-rendering="geometricPrecision" stroke-miterlimit="1.45" shape-rendering="geometricPrecision" transform="matrix(1,0,0,1,1062,29)" stroke-linecap="butt">
      <rect fill="none" x="-847.1873" width="35" height="60" y="69" clip-path="url(#clipPath2)"/>
    </g>
    <g font-size="10px" stroke-linecap="butt" transform="matrix(0,1,-1,0,240.4381,114.8892)" text-rendering="geometricPrecision" font-family="sans-serif" shape-rendering="geometricPrecision" stroke-miterlimit="1.45">
      <text x="2" xml:space="preserve" y="12.0537" clip-path="url(#clipPath13)" stroke="none">MUX</text>
    </g>
    <g text-rendering="geometricPrecision" stroke-miterlimit="1.45" shape-rendering="geometricPrecision" font-family="sans-serif" transform="matrix(1,0,0,1,1062,29)" stroke-linecap="butt">
      <text x="-1035.1599" xml:space="preserve" y="87.0115" clip-path="url(#clipPath2)" stroke="none">CMAC0</text>
      <text x="-942.2047" xml:space="preserve" y="118.0498" clip-path="url(#clipPath2)" stroke="none">PF0_VF2</text>
    </g>
    <g fill="rgb(153,204,255)" text-rendering="geometricPrecision" shape-rendering="geometricPrecision" transform="matrix(1,0,0,1,1062,29)" stroke="rgb(153,204,255)">
      <rect x="-797.8493" width="35" height="60" y="69" clip-path="url(#clipPath2)" stroke="none"/>
    </g>
    <g text-rendering="geometricPrecision" stroke-miterlimit="1.45" shape-rendering="geometricPrecision" transform="matrix(1,0,0,1,1062,29)" stroke-linecap="butt">
      <rect fill="none" x="-797.8493" width="35" height="60" y="69" clip-path="url(#clipPath2)"/>
    </g>
    <g font-size="10px" stroke-linecap="butt" transform="matrix(0,1,-1,0,289.7761,107.9434)" text-rendering="geometricPrecision" font-family="sans-serif" shape-rendering="geometricPrecision" stroke-miterlimit="1.45">
      <text x="2" xml:space="preserve" y="12.0537" clip-path="url(#clipPath14)" stroke="none">DEMUX</text>
    </g>
    <g fill="rgb(153,204,255)" text-rendering="geometricPrecision" shape-rendering="geometricPrecision" transform="matrix(1,0,0,1,1062,29)" stroke="rgb(153,204,255)">
      <rect x="-847.1873" width="35" height="60" y="143.252" clip-path="url(#clipPath2)" stroke="none"/>
    </g>
    <g text-rendering="geometricPrecision" stroke-miterlimit="1.45" shape-rendering="geometricPrecision" transform="matrix(1,0,0,1,1062,29)" stroke-linecap="butt">
      <rect fill="none" x="-847.1873" width="35" height="60" y="143.252" clip-path="url(#clipPath2)"/>
    </g>
    <g font-size="10px" stroke-linecap="butt" transform="matrix(0,1,-1,0,240.4381,189.1412)" text-rendering="geometricPrecision" font-family="sans-serif" shape-rendering="geometricPrecision" stroke-miterlimit="1.45">
      <text x="2" xml:space="preserve" y="12.0537" clip-path="url(#clipPath15)" stroke="none">MUX</text>
    </g>
    <g text-rendering="geometricPrecision" stroke-miterlimit="1.45" shape-rendering="geometricPrecision" font-family="sans-serif" transform="matrix(1,0,0,1,1062,29)" stroke-linecap="butt">
      <text x="-1035.1599" xml:space="preserve" y="161.2635" clip-path="url(#clipPath2)" stroke="none">CMAC1</text>
      <text x="-942.2047" xml:space="preserve" y="192.3018" clip-path="url(#clipPath2)" stroke="none">PF1_VF2</text>
    </g>
    <g fill="rgb(153,204,255)" text-rendering="geometricPrecision" shape-rendering="geometricPrecision" transform="matrix(1,0,0,1,1062,29)" stroke="rgb(153,204,255)">
      <rect x="-797.8493" width="35" height="60" y="143.252" clip-path="url(#clipPath2)" stroke="none"/>
    </g>
    <g text-rendering="geometricPrecision" stroke-miterlimit="1.45" shape-rendering="geometricPrecision" transform="matrix(1,0,0,1,1062,29)" stroke-linecap="butt">
      <rect fill="none" x="-797.8493" width="35" height="60" y="143.252" clip-path="url(#clipPath2)"/>
    </g>
    <g font-size="10px" stroke-linecap="butt" transform="matrix(0,1,-1,0,289.7761,182.1954)" text-rendering="geometricPrecision" font-family="sans-serif" shape-rendering="geometricPrecision" stroke-miterlimit="1.45">
      <text x="2" xml:space="preserve" y="12.0537" clip-path="url(#clipPath16)" stroke="none">DEMUX</text>
    </g>
    <g fill="rgb(153,204,255)" text-rendering="geometricPrecision" shape-rendering="geometricPrecision" transform="matrix(1,0,0,1,1062,29)" stroke="rgb(153,204,255)">
      <rect x="-847.1873" width="35" height="60" y="286.3216" clip-path="url(#clipPath2)" stroke="none"/>
    </g>
    <g text-rendering="geometricPrecision" stroke-miterlimit="1.45" shape-rendering="geometricPrecision" transform="matrix(1,0,0,1,1062,29)" stroke-linecap="butt">
      <rect fill="none" x="-847.1873" width="35" height="60" y="286.3216" clip-path="url(#clipPath2)"/>
    </g>
    <g font-size="10px" stroke-linecap="butt" transform="matrix(0,1,-1,0,240.4381,325.2649)" text-rendering="geometricPrecision" font-family="sans-serif" shape-rendering="geometricPrecision" stroke-miterlimit="1.45">
      <text x="2" xml:space="preserve" y="12.0537" clip-path="url(#clipPath17)" stroke="none">DEMUX</text>
    </g>
    <g fill="rgb(153,204,255)" text-rendering="geometricPrecision" shape-rendering="geometricPrecision" transform="matrix(1,0,0,1,1062,29)" stroke="rgb(153,204,255)">
      <rect x="-797.8493" width="35" height="60" y="286.3216" clip-path="url(#clipPath2)" stroke="none"/>
    </g>
    <g text-rendering="geometricPrecision" stroke-miterlimit="1.45" shape-rendering="geometricPrecision" transform="matrix(1,0,0,1,1062,29)" stroke-linecap="butt">
      <rect fill="none" x="-797.8493" width="35" height="60" y="286.3216" clip-path="url(#clipPath2)"/>
    </g>
    <g font-size="10px" stroke-linecap="butt" transform="matrix(0,1,-1,0,289.7761,332.2107)" text-rendering="geometricPrecision" font-family="sans-serif" shape-rendering="geometricPrecision" stroke-miterlimit="1.45">
      <text x="2" xml:space="preserve" y="12.0537" clip-path="url(#clipPath18)" stroke="none">MUX</text>
    </g>
    <g text-rendering="geometricPrecision" stroke-miterlimit="1.45" shape-rendering="geometricPrecision" font-family="sans-serif" transform="matrix(1,0,0,1,1062,29)" stroke-linecap="butt">
      <text x="-1035.1599" xml:space="preserve" y="379.5501" clip-path="url(#clipPath2)" stroke="none">CMAC1</text>
      <text x="-939.7044" xml:space="preserve" y="410.223" clip-path="url(#clipPath2)" stroke="none">PF1_VF2</text>
      <path fill="none" d="M-797.8494 390.5736 L-804.1873 390.5736" clip-path="url(#clipPath2)"/>
      <path d="M-812.1873 390.5736 L-800.1873 395.5736 L-803.1873 390.5736 L-800.1873 385.5736 Z" clip-path="url(#clipPath2)" stroke="none"/>
      <path fill="none" d="M-725.3542 256.3025 L-725.3542 371.5507 L-725.3542 371.5507 L-754.8472 371.5507" clip-path="url(#clipPath2)"/>
      <path d="M-762.8472 371.5507 L-750.8472 376.5507 L-753.8472 371.5507 L-750.8472 366.5507 Z" clip-path="url(#clipPath2)" stroke="none"/>
      <path fill="none" d="M-306.311 264.3059 L-394.8066 264.3059" clip-path="url(#clipPath2)"/>
      <path d="M-402.8066 264.3059 L-390.8066 269.3059 L-393.8066 264.3059 L-390.8066 259.3059 Z" clip-path="url(#clipPath2)" stroke="none"/>
      <rect x="-367.5391" y="254.9553" clip-path="url(#clipPath2)" fill="rgb(243,243,243)" width="26.0078" height="18.7012" stroke="none"/>
      <text x="-365.5392" xml:space="preserve" y="269.0198" clip-path="url(#clipPath2)" stroke="none">PF0</text>
      <path fill="none" d="M-306.311 283.8059 L-394.8066 283.8059" clip-path="url(#clipPath2)"/>
      <path d="M-402.8066 283.8059 L-390.8066 288.8059 L-393.8066 283.8059 L-390.8066 278.8059 Z" clip-path="url(#clipPath2)" stroke="none"/>
      <rect x="-381.88" y="274.4553" clip-path="url(#clipPath2)" fill="rgb(243,243,243)" width="54.6895" height="18.7012" stroke="none"/>
      <text x="-379.88" xml:space="preserve" y="288.5198" clip-path="url(#clipPath2)" stroke="none">PF0_VF0</text>
      <path fill="none" d="M-306.311 303.3059 L-394.8066 303.3059" clip-path="url(#clipPath2)"/>
      <path d="M-402.8066 303.3059 L-390.8066 308.3059 L-393.8066 303.3059 L-390.8066 298.3059 Z" clip-path="url(#clipPath2)" stroke="none"/>
      <rect x="-381.88" y="293.9553" clip-path="url(#clipPath2)" fill="rgb(243,243,243)" width="54.6895" height="18.7012" stroke="none"/>
      <text x="-379.88" xml:space="preserve" y="308.0198" clip-path="url(#clipPath2)" stroke="none">PF0_VF1</text>
      <path fill="none" d="M-306.311 354.8236 L-394.8066 354.8236" clip-path="url(#clipPath2)"/>
      <path d="M-402.8066 354.8236 L-390.8066 359.8236 L-393.8066 354.8236 L-390.8066 349.8236 Z" clip-path="url(#clipPath2)" stroke="none"/>
      <rect x="-367.5391" y="345.473" clip-path="url(#clipPath2)" fill="rgb(243,243,243)" width="26.0078" height="18.7012" stroke="none"/>
      <text x="-365.5392" xml:space="preserve" y="359.5374" clip-path="url(#clipPath2)" stroke="none">PF1</text>
      <path fill="none" d="M-306.311 374.3236 L-394.8066 374.3236" clip-path="url(#clipPath2)"/>
      <path d="M-402.8066 374.3236 L-390.8066 379.3236 L-393.8066 374.3236 L-390.8066 369.3236 Z" clip-path="url(#clipPath2)" stroke="none"/>
      <rect x="-381.88" y="364.973" clip-path="url(#clipPath2)" fill="rgb(243,243,243)" width="54.6895" height="18.7012" stroke="none"/>
      <text x="-379.88" xml:space="preserve" y="379.0374" clip-path="url(#clipPath2)" stroke="none">PF1_VF0</text>
      <path fill="none" d="M-306.311 393.8236 L-394.8066 393.8236" clip-path="url(#clipPath2)"/>
      <path d="M-402.8066 393.8236 L-390.8066 398.8236 L-393.8066 393.8236 L-390.8066 388.8236 Z" clip-path="url(#clipPath2)" stroke="none"/>
      <rect x="-381.88" y="384.473" clip-path="url(#clipPath2)" fill="rgb(243,243,243)" width="54.6895" height="18.7012" stroke="none"/>
      <text x="-379.88" xml:space="preserve" y="398.5374" clip-path="url(#clipPath2)" stroke="none">PF1_VF1</text>
      <path fill="none" d="M-402.8066 120.75 L-314.311 120.75" clip-path="url(#clipPath2)"/>
      <path d="M-306.311 120.75 L-318.311 115.75 L-315.311 120.75 L-318.311 125.75 Z" clip-path="url(#clipPath2)" stroke="none"/>
      <rect x="-381.88" y="111.3994" clip-path="url(#clipPath2)" fill="rgb(243,243,243)" width="54.6895" height="18.7012" stroke="none"/>
      <text x="-379.88" xml:space="preserve" y="125.4639" clip-path="url(#clipPath2)" stroke="none">PF0_VF1</text>
      <path fill="none" d="M-402.8066 101.25 L-314.311 101.25" clip-path="url(#clipPath2)"/>
      <path d="M-306.311 101.25 L-318.311 96.25 L-315.311 101.25 L-318.311 106.25 Z" clip-path="url(#clipPath2)" stroke="none"/>
      <rect x="-381.88" y="91.8994" clip-path="url(#clipPath2)" fill="rgb(243,243,243)" width="54.6895" height="18.7012" stroke="none"/>
      <text x="-379.88" xml:space="preserve" y="105.9639" clip-path="url(#clipPath2)" stroke="none">PF0_VF0</text>
      <path fill="none" d="M-402.8066 81.75 L-314.311 81.75" clip-path="url(#clipPath2)"/>
      <path d="M-306.311 81.75 L-318.311 76.75 L-315.311 81.75 L-318.311 86.75 Z" clip-path="url(#clipPath2)" stroke="none"/>
      <rect x="-367.5391" y="72.3994" clip-path="url(#clipPath2)" fill="rgb(243,243,243)" width="26.0078" height="18.7012" stroke="none"/>
      <text x="-365.5392" xml:space="preserve" y="86.4639" clip-path="url(#clipPath2)" stroke="none">PF0</text>
      <path fill="none" d="M-402.8066 212.7883 L-314.311 212.7883" clip-path="url(#clipPath2)"/>
      <path d="M-306.311 212.7883 L-318.311 207.7883 L-315.311 212.7883 L-318.311 217.7883 Z" clip-path="url(#clipPath2)" stroke="none"/>
      <rect x="-381.88" y="203.4377" clip-path="url(#clipPath2)" fill="rgb(243,243,243)" width="54.6895" height="18.7012" stroke="none"/>
      <text x="-379.88" xml:space="preserve" y="217.5021" clip-path="url(#clipPath2)" stroke="none">PF1_VF1</text>
      <path fill="none" d="M-402.8066 193.2883 L-314.311 193.2883" clip-path="url(#clipPath2)"/>
      <path d="M-306.311 193.2883 L-318.311 188.2883 L-315.311 193.2883 L-318.311 198.2883 Z" clip-path="url(#clipPath2)" stroke="none"/>
      <rect x="-381.88" y="183.9377" clip-path="url(#clipPath2)" fill="rgb(243,243,243)" width="54.6895" height="18.7012" stroke="none"/>
      <text x="-379.88" xml:space="preserve" y="198.0021" clip-path="url(#clipPath2)" stroke="none">PF1_VF0</text>
      <path fill="none" d="M-402.8066 173.7883 L-314.311 173.7883" clip-path="url(#clipPath2)"/>
      <path d="M-306.311 173.7883 L-318.311 168.7883 L-315.311 173.7883 L-318.311 178.7883 Z" clip-path="url(#clipPath2)" stroke="none"/>
      <rect x="-367.5391" y="164.4377" clip-path="url(#clipPath2)" fill="rgb(243,243,243)" width="26.0078" height="18.7012" stroke="none"/>
      <text x="-365.5392" xml:space="preserve" y="178.5021" clip-path="url(#clipPath2)" stroke="none">PF1</text>
      <path fill="none" d="M-594.3286 335.6313 L-658.0201 335.6313 L-658.0201 407.3528 L-658.0201 407.3528 L-754.8094 407.3528" clip-path="url(#clipPath2)"/>
      <path d="M-762.8094 407.3528 L-750.8094 412.3528 L-753.8094 407.3528 L-750.8094 402.3528 Z" clip-path="url(#clipPath2)" stroke="none"/>
      <path fill="none" d="M-594.3251 316.4033 L-687.9388 316.4033 L-687.9388 390.5736 L-754.8494 390.5736" clip-path="url(#clipPath2)"/>
      <path d="M-762.8494 390.5736 L-750.8494 395.5736 L-753.8494 390.5736 L-750.8494 385.5736 Z" clip-path="url(#clipPath2)" stroke="none"/>
      <path fill="none" d="M-147.4679 290.8059 L-263.2639 290.8059" clip-path="url(#clipPath2)"/>
      <path d="M-271.2639 290.8059 L-259.2639 295.8059 L-262.2639 290.8059 L-259.2639 285.8059 Z" clip-path="url(#clipPath2)" stroke="none"/>
      <path fill="none" d="M-271.2639 108.25 L-155.4679 108.25" clip-path="url(#clipPath2)"/>
      <path d="M-147.4679 108.25 L-159.4679 103.25 L-156.4679 108.25 L-159.4679 113.25 Z" clip-path="url(#clipPath2)" stroke="none"/>
      <path fill="none" d="M-271.2639 200.2883 L-154.7239 200.2883" clip-path="url(#clipPath2)"/>
      <path d="M-146.7239 200.2883 L-158.7239 195.2883 L-155.7239 200.2883 L-158.7239 205.2883 Z" clip-path="url(#clipPath2)" stroke="none"/>
      <path fill="none" d="M-146.7111 381.3236 L-263.2639 381.3236" clip-path="url(#clipPath2)"/>
      <path d="M-271.2639 381.3236 L-259.2639 386.3236 L-262.2639 381.3236 L-259.2639 376.3236 Z" clip-path="url(#clipPath2)" stroke="none"/>
      <path fill="none" stroke-dasharray="6,2" d="M-146.7312 404.8236 L-174.4104 404.8236" clip-path="url(#clipPath2)"/>
      <path stroke-dasharray="6,2" d="M-182.4104 404.8236 L-170.4104 409.8236 L-173.4104 404.8236 L-170.4104 399.8236 Z" clip-path="url(#clipPath2)" stroke="none"/>
      <path fill="none" stroke-dasharray="6,2" d="M-146.7045 313.7041 L-174.0827 313.7041" clip-path="url(#clipPath2)"/>
      <path stroke-dasharray="6,2" d="M-182.0827 313.7041 L-170.0827 318.7041 L-173.0827 313.7041 L-170.0827 308.7041 Z" clip-path="url(#clipPath2)" stroke="none"/>
      <path fill="none" stroke-dasharray="6,2" d="M-180.772 221.3896 L-154.7236 221.3896" clip-path="url(#clipPath2)"/>
      <path stroke-dasharray="6,2" d="M-146.7236 221.3896 L-158.7236 216.3896 L-155.7236 221.3896 L-158.7236 226.3896 Z" clip-path="url(#clipPath2)" stroke="none"/>
      <path fill="none" stroke-dasharray="6,2" d="M-182.0827 130.8747 L-154.7112 130.8747" clip-path="url(#clipPath2)"/>
      <path stroke-dasharray="6,2" d="M-146.7112 130.8747 L-158.7112 125.8747 L-155.7112 130.8747 L-158.7112 135.8747 Z" clip-path="url(#clipPath2)" stroke="none"/>
      <path fill="none" d="M-67.1136 394.0018 L-103.6954 394.0018" clip-path="url(#clipPath2)"/>
      <path d="M-111.6954 394.0018 L-99.6954 399.0018 L-102.6954 394.0018 L-99.6954 389.0018 Z" clip-path="url(#clipPath2)" stroke="none"/>
      <path fill="none" d="M-67.1136 303.4842 L-103.6954 303.4842" clip-path="url(#clipPath2)"/>
      <path d="M-111.6954 303.4842 L-99.6954 308.4842 L-102.6954 303.4842 L-99.6954 298.4842 Z" clip-path="url(#clipPath2)" stroke="none"/>
      <path fill="none" d="M-111.6954 212.9665 L-75.1136 212.9665" clip-path="url(#clipPath2)"/>
      <path d="M-67.1136 212.9665 L-79.1136 207.9665 L-76.1136 212.9665 L-79.1136 217.9665 Z" clip-path="url(#clipPath2)" stroke="none"/>
      <path fill="none" d="M-111.6954 120.9283 L-75.1136 120.9283" clip-path="url(#clipPath2)"/>
      <path d="M-67.1136 120.9283 L-79.1136 115.9283 L-76.1136 120.9283 L-79.1136 125.9283 Z" clip-path="url(#clipPath2)" stroke="none"/>
      <path fill="none" d="M-981.532 82.2976 L-855.2137 82.2976" clip-path="url(#clipPath2)"/>
      <path d="M-847.2137 82.2976 L-859.2137 77.2976 L-856.2137 82.2976 L-859.2137 87.2976 Z" clip-path="url(#clipPath2)" stroke="none"/>
      <path fill="none" stroke-dasharray="6,2" d="M-885.23 114.1921 L-855.1916 114.1921" clip-path="url(#clipPath2)"/>
      <path stroke-dasharray="6,2" d="M-847.1916 114.1921 L-859.1916 109.1921 L-856.1916 114.1921 L-859.1916 119.1921 Z" clip-path="url(#clipPath2)" stroke="none"/>
      <path fill="none" d="M-812.1873 99 L-805.8494 99" clip-path="url(#clipPath2)"/>
      <path d="M-797.8494 99 L-809.8494 94 L-806.8494 99 L-809.8494 104 Z" clip-path="url(#clipPath2)" stroke="none"/>
      <path fill="none" d="M-762.8408 112.4534 L-725.4671 112.4534 L-725.4671 112.4534 L-725.4671 231.3046" clip-path="url(#clipPath2)"/>
      <path d="M-725.4671 239.3046 L-720.4671 227.3046 L-725.4671 230.3046 L-730.4671 227.3046 Z" clip-path="url(#clipPath2)" stroke="none"/>
      <path fill="none" d="M-762.8468 82.3703 L-602.3306 82.3703" clip-path="url(#clipPath2)"/>
      <path d="M-594.3306 82.3703 L-606.3306 77.3703 L-603.3306 82.3703 L-606.3306 87.3703 Z" clip-path="url(#clipPath2)" stroke="none"/>
      <rect x="-687.9168" y="73.0197" clip-path="url(#clipPath2)" fill="rgb(243,243,243)" width="18.6777" height="18.7012" stroke="none"/>
      <text x="-685.9169" xml:space="preserve" y="87.0842" clip-path="url(#clipPath2)" stroke="none">P0</text>
      <path fill="none" d="M-981.532 156.5496 L-855.2137 156.5496" clip-path="url(#clipPath2)"/>
      <path d="M-847.2137 156.5496 L-859.2137 151.5496 L-856.2137 156.5496 L-859.2137 161.5496 Z" clip-path="url(#clipPath2)" stroke="none"/>
      <path fill="none" stroke-dasharray="6,2" d="M-885.23 188.4441 L-855.1916 188.4441" clip-path="url(#clipPath2)"/>
      <path stroke-dasharray="6,2" d="M-847.1916 188.4441 L-859.1916 183.4441 L-856.1916 188.4441 L-859.1916 193.4441 Z" clip-path="url(#clipPath2)" stroke="none"/>
      <path fill="none" d="M-812.1873 173.252 L-805.8494 173.252" clip-path="url(#clipPath2)"/>
      <path d="M-797.8494 173.252 L-809.8494 168.252 L-806.8494 173.252 L-809.8494 178.252 Z" clip-path="url(#clipPath2)" stroke="none"/>
      <path fill="none" d="M-762.8428 157.7306 L-602.3105 157.7306" clip-path="url(#clipPath2)"/>
      <path d="M-594.3105 157.7306 L-606.3105 152.7306 L-603.3105 157.7306 L-606.3105 162.7306 Z" clip-path="url(#clipPath2)" stroke="none"/>
      <rect x="-687.9168" y="148.38" clip-path="url(#clipPath2)" fill="rgb(243,243,243)" width="18.6777" height="18.7012" stroke="none"/>
      <text x="-685.9169" xml:space="preserve" y="162.4444" clip-path="url(#clipPath2)" stroke="none">P1</text>
      <path fill="none" d="M-762.8354 186.7054 L-741.3871 186.7054 L-741.3871 186.7054 L-741.3871 231.2967" clip-path="url(#clipPath2)"/>
      <path d="M-741.3871 239.2967 L-736.3871 227.2967 L-741.3871 230.2967 L-746.3871 227.2967 Z" clip-path="url(#clipPath2)" stroke="none"/>
      <path fill="none" d="M-847.2148 300.5843 L-973.532 300.5843" clip-path="url(#clipPath2)"/>
      <path d="M-981.532 300.5843 L-969.532 305.5843 L-972.532 300.5843 L-969.532 295.5843 Z" clip-path="url(#clipPath2)" stroke="none"/>
      <path fill="none" stroke-dasharray="6,2" d="M-847.1884 331.2571 L-875.8875 331.2571" clip-path="url(#clipPath2)"/>
      <path stroke-dasharray="6,2" d="M-883.8875 331.2571 L-871.8875 336.2571 L-874.8875 331.2571 L-871.8875 326.2571 Z" clip-path="url(#clipPath2)" stroke="none"/>
      <path fill="none" d="M-594.3156 335.6313 L-668.256 335.6313 L-754.8096 335.6313" clip-path="url(#clipPath2)"/>
      <path d="M-762.8096 335.6313 L-750.8096 340.6313 L-753.8096 335.6313 L-750.8096 330.6313 Z" clip-path="url(#clipPath2)" stroke="none"/>
      <rect x="-647.7896" y="326.2807" clip-path="url(#clipPath2)" fill="rgb(243,243,243)" width="18.6777" height="18.7012" stroke="none"/>
      <text x="-645.7896" xml:space="preserve" y="340.3452" clip-path="url(#clipPath2)" stroke="none">P1</text>
      <path fill="none" d="M-594.3294 316.3216 L-754.8494 316.3216" clip-path="url(#clipPath2)"/>
      <path d="M-762.8494 316.3216 L-750.8494 321.3216 L-753.8494 316.3216 L-750.8494 311.3216 Z" clip-path="url(#clipPath2)" stroke="none"/>
      <rect x="-676.6207" y="306.971" clip-path="url(#clipPath2)" fill="rgb(243,243,243)" width="18.6777" height="18.7012" stroke="none"/>
      <text x="-674.6207" xml:space="preserve" y="321.0354" clip-path="url(#clipPath2)" stroke="none">P0</text>
      <path fill="none" d="M-740.7125 256.3481 L-740.7125 298.3665 L-754.8422 298.3665" clip-path="url(#clipPath2)"/>
      <path d="M-762.8422 298.3665 L-750.8422 303.3665 L-753.8422 298.3665 L-750.8422 293.3665 Z" clip-path="url(#clipPath2)" stroke="none"/>
      <path fill="none" d="M-797.8494 316.3216 L-804.1873 316.3216" clip-path="url(#clipPath2)"/>
      <path d="M-812.1873 316.3216 L-800.1873 321.3216 L-803.1873 316.3216 L-800.1873 311.3216 Z" clip-path="url(#clipPath2)" stroke="none"/>
      <path fill="none" d="M-847.2148 374.8363 L-973.532 374.8363" clip-path="url(#clipPath2)"/>
      <path d="M-981.532 374.8363 L-969.532 379.8363 L-972.532 374.8363 L-969.532 369.8363 Z" clip-path="url(#clipPath2)" stroke="none"/>
      <path fill="none" stroke-dasharray="6,2" d="M-847.1884 405.5091 L-875.8875 405.5091" clip-path="url(#clipPath2)"/>
      <path stroke-dasharray="6,2" d="M-883.8875 405.5091 L-871.8875 410.5091 L-874.8875 405.5091 L-871.8875 400.5091 Z" clip-path="url(#clipPath2)" stroke="none"/>
    </g>
  </g>
</svg>
